<svg id="atom_2_" data-name="atom (2)" xmlns="http://www.w3.org/2000/svg" width="44.509" height="47.846" viewBox="0 0 44.509 47.846">
  <path id="Path_25716" data-name="Path 25716" d="M55.8,50.25A5.552,5.552,0,1,0,61.354,55.8,5.552,5.552,0,0,0,55.8,50.25Zm0,9.69A4.139,4.139,0,1,1,59.94,55.8,4.139,4.139,0,0,1,55.8,59.94Z" transform="translate(-33.472 -31.879)" fill="#fff"/>
  <path id="Path_25717" data-name="Path 25717" d="M67.175,62.25a.707.707,0,0,0-.707.707,1.726,1.726,0,0,1-.856,1.484.707.707,0,0,0,.712,1.221,3.143,3.143,0,0,0,1.557-2.705.707.707,0,0,0-.707-.707Z" transform="translate(-42.422 -39.034)" fill="#fff"/>
  <path id="Path_25718" data-name="Path 25718" d="M49.287,27.022a3.128,3.128,0,0,0,3-5.238c-.051-.051-.106-.1-.162-.144a6.258,6.258,0,0,0-.385-4.928c-1.7-2.939-6.149-3.9-12.259-2.686-2.008-5.9-5.07-9.276-8.458-9.276s-6.45,3.375-8.46,9.276C16.454,12.809,12,13.772,10.306,16.711A6.262,6.262,0,0,0,9.9,21.532a3.129,3.129,0,0,0,2.842,5.457c.419.558.878,1.122,1.373,1.687-4.106,4.685-5.5,9.023-3.8,11.959,1.217,2.11,3.852,3.205,7.5,3.205a24.694,24.694,0,0,0,4.755-.522c2.01,5.9,5.072,9.278,8.461,9.278a6.293,6.293,0,0,0,4.4-2.069,3.128,3.128,0,0,0,3.467-5.076c-.051-.051-.105-.1-.159-.145.264-.625.518-1.292.757-1.989a24.639,24.639,0,0,0,4.753.522c3.65,0,6.286-1.1,7.5-3.205,1.7-2.936.3-7.274-3.8-11.959C48.417,28.132,48.867,27.579,49.287,27.022Zm2-1.811a1.718,1.718,0,0,1-2.426,0h0a1.715,1.715,0,1,1,2.427,0Zm-.769-7.793a4.751,4.751,0,0,1,.327,3.553,3.127,3.127,0,0,0-2.985,5.239c.051.051.105.1.159.145q-.492.64-1.038,1.271a42.7,42.7,0,0,0-5.637-4.91,43.218,43.218,0,0,0-1.429-7.336c5.325-1.03,9.263-.287,10.6,2.038ZM38.531,41.667a40.478,40.478,0,0,1-5.765-1.874c1.205-.583,2.406-1.216,3.583-1.9s2.336-1.41,3.432-2.159a40.456,40.456,0,0,1-1.25,5.928Zm-15.011,0a40.449,40.449,0,0,1-1.252-5.928c1.1.749,2.247,1.473,3.434,2.159s2.376,1.314,3.583,1.9a40.483,40.483,0,0,1-5.765,1.874Zm0-25.988a40.463,40.463,0,0,1,5.765,1.874c-1.206.583-2.406,1.216-3.583,1.9s-2.336,1.41-3.434,2.159a40.437,40.437,0,0,1,1.252-5.93ZM20.527,32.724a39.889,39.889,0,0,1-4.507-4.051,39.936,39.936,0,0,1,4.507-4.051c-.1,1.332-.153,2.69-.153,4.051S20.427,31.39,20.527,32.724Zm5.882,3.949c-1.529-.883-2.993-1.831-4.363-2.817-.169-1.692-.258-3.432-.258-5.183s.089-3.491.258-5.183c1.369-.985,2.833-1.934,4.363-2.817C27.923,19.8,29.475,19,31.026,18.3c1.552.7,3.1,1.5,4.617,2.373,1.529.883,2.993,1.831,4.363,2.817.169,1.692.258,3.432.258,5.183s-.089,3.491-.258,5.183c-1.369.985-2.833,1.934-4.363,2.817-1.514.875-3.066,1.67-4.617,2.373-1.552-.7-3.1-1.5-4.618-2.373Zm12.123-21a40.448,40.448,0,0,1,1.252,5.928c-1.1-.749-2.247-1.473-3.432-2.159s-2.379-1.312-3.586-1.894a40.483,40.483,0,0,1,5.765-1.874Zm2.991,8.944a39.888,39.888,0,0,1,4.507,4.051,39.935,39.935,0,0,1-4.507,4.051c.1-1.332.153-2.69.153-4.051S41.624,25.956,41.523,24.622ZM31.025,6.163c2.68,0,5.295,3.04,7.072,8.166a43.336,43.336,0,0,0-7.072,2.423,43.3,43.3,0,0,0-7.072-2.423C25.731,9.2,28.345,6.163,31.025,6.163ZM10.606,25.21h0a1.718,1.718,0,1,1,1.214.5,1.718,1.718,0,0,1-1.214-.5Zm3.426-3.426a3.129,3.129,0,0,0-2.836-.852,4.69,4.69,0,0,1,.333-3.513c1.342-2.326,5.28-3.069,10.6-2.039a43.246,43.246,0,0,0-1.43,7.336,42.665,42.665,0,0,0-5.638,4.906q-.59-.681-1.1-1.353c.022-.021.046-.04.068-.062a3.132,3.132,0,0,0,0-4.425Zm-2.5,18.144c-1.338-2.322-.013-6.105,3.54-10.205A42.683,42.683,0,0,0,20.7,34.631a43.218,43.218,0,0,0,1.429,7.336c-5.325,1.029-9.263.287-10.6-2.039Zm26.362,8.949a1.719,1.719,0,1,1,.5-1.214,1.719,1.719,0,0,1-.5,1.214ZM36.68,44.536a3.128,3.128,0,0,0-2.4,5.139,4.746,4.746,0,0,1-3.257,1.508c-2.68,0-5.295-3.04-7.072-8.166a43.335,43.335,0,0,0,7.072-2.423A43.308,43.308,0,0,0,38.1,43.017c-.2.567-.4,1.11-.619,1.625a3.139,3.139,0,0,0-.8-.106Zm13.843-4.608c-1.342,2.326-5.28,3.069-10.6,2.039a43.247,43.247,0,0,0,1.43-7.336,42.663,42.663,0,0,0,5.634-4.907c3.553,4.1,4.878,7.883,3.539,10.205Z" transform="translate(-8.695 -4.75)" fill="#fff"/>
</svg>
