<svg xmlns="http://www.w3.org/2000/svg" width="22.822" height="22.822" viewBox="0 0 22.822 22.822">
  <path id="Path_209" data-name="Path 209" d="M11.411,0A11.411,11.411,0,1,0,22.823,11.411,11.411,11.411,0,0,0,11.411,0ZM8.1,17.25H5.316V8.89H8.1Zm-1.389-9.5H6.688a1.448,1.448,0,1,1,.037-2.886,1.449,1.449,0,1,1-.019,2.886Zm11.41,9.5H15.338V12.778c0-1.124-.4-1.89-1.408-1.89A1.521,1.521,0,0,0,12.5,11.906a1.9,1.9,0,0,0-.092.679v4.669H9.633s.037-7.576,0-8.361h2.779v1.184a2.759,2.759,0,0,1,2.5-1.38c1.829,0,3.2,1.2,3.2,3.763Zm0,0" transform="translate(-0.001)" fill="#192445"/>
</svg>
