<svg id="creativity" xmlns="http://www.w3.org/2000/svg" width="41.672" height="47.846" viewBox="0 0 41.672 47.846">
  <path id="Path_25719" data-name="Path 25719" d="M100.053,45.667a3.856,3.856,0,0,0-2.505,3.6,3.813,3.813,0,0,0,.442,1.756,3.073,3.073,0,0,0,0,5.749,3.812,3.812,0,0,0-.442,1.756,3.855,3.855,0,0,0,2.505,3.6,3.044,3.044,0,0,0-.19,1.029,3.066,3.066,0,0,0,4.175,2.879,3.079,3.079,0,0,0,5.857-1.336V43.095a3.079,3.079,0,0,0-5.857-1.336,3.058,3.058,0,0,0-3.985,3.909Zm2.9-2.573a1.545,1.545,0,0,1,1.543,1.543h1.543a3.057,3.057,0,0,0-.711-1.947,1.54,1.54,0,0,1,3.027.4V64.7a1.54,1.54,0,0,1-3.027.4,3.056,3.056,0,0,0,.711-1.947h-1.543a1.543,1.543,0,1,1-1.543-1.543V60.072a3.057,3.057,0,0,0-1.968.729,2.313,2.313,0,1,1,2.739-2.272h1.543a3.863,3.863,0,0,0-3.859-3.858,3.818,3.818,0,0,0-2.315.792v-.02a1.543,1.543,0,0,1,0-3.087v-.02a3.817,3.817,0,0,0,2.315.792,3.863,3.863,0,0,0,3.859-3.858h-1.543A2.315,2.315,0,1,1,100.982,47a3.057,3.057,0,0,0,1.968.728V46.181a1.543,1.543,0,1,1,0-3.087Zm0,0" transform="translate(-86.744 -36.149)" fill="#fff"/>
  <path id="Path_25720" data-name="Path 25720" d="M262.949,41.551a3.07,3.07,0,0,0-1.088.208A3.079,3.079,0,0,0,256,43.095V64.7a3.079,3.079,0,0,0,5.857,1.336,3.066,3.066,0,0,0,4.175-2.879,3.036,3.036,0,0,0-.19-1.029,3.855,3.855,0,0,0,2.505-3.6,3.812,3.812,0,0,0-.442-1.756,3.074,3.074,0,0,0,0-5.749,3.813,3.813,0,0,0,.442-1.756,3.856,3.856,0,0,0-2.505-3.6,3.034,3.034,0,0,0,.19-1.029,3.09,3.09,0,0,0-3.087-3.087Zm3.859,7.717a2.315,2.315,0,1,1-4.63,0h-1.543a3.863,3.863,0,0,0,3.858,3.858,3.817,3.817,0,0,0,2.315-.792v.02a1.543,1.543,0,0,1,0,3.087v.02a3.818,3.818,0,0,0-2.315-.792,3.863,3.863,0,0,0-3.858,3.858h1.543a2.315,2.315,0,1,1,2.74,2.272,3.059,3.059,0,0,0-1.968-.729v1.543a1.543,1.543,0,1,1-1.543,1.543h-1.543a3.056,3.056,0,0,0,.711,1.947,1.54,1.54,0,0,1-3.026-.4V43.095a1.54,1.54,0,0,1,3.026-.4,3.057,3.057,0,0,0-.711,1.947h1.543a1.543,1.543,0,1,1,1.543,1.543v1.543A3.059,3.059,0,0,0,264.917,47,2.315,2.315,0,0,1,266.808,49.268Zm0,0" transform="translate(-231.31 -36.149)" fill="#fff"/>
  <path id="Path_25721" data-name="Path 25721" d="M93.909,4.814A17.6,17.6,0,0,0,80.624.038l.1,1.54A16.2,16.2,0,0,1,90.7,31.262,9.54,9.54,0,0,0,87.213,35.5H76.269a9.7,9.7,0,0,0-3.5-4.27,16.133,16.133,0,0,1-7.2-14l-1.543-.048a17.666,17.666,0,0,0,7.89,15.326A8.131,8.131,0,0,1,74.577,35.5H72.5v1.543h2.7a8.906,8.906,0,0,1,.33,1.543H74.04V40.13h1.543v2.315a.771.771,0,0,0,.772.772h.772a4.63,4.63,0,0,0,9.26,0h.772a.771.771,0,0,0,.772-.772V40.13h1.543V38.587H87.985a8.6,8.6,0,0,1,.31-1.543h2.722V35.5H88.9a7.957,7.957,0,0,1,2.649-2.951A17.746,17.746,0,0,0,93.909,4.814ZM81.757,46.3a3.09,3.09,0,0,1-3.087-3.087h6.174A3.09,3.09,0,0,1,81.757,46.3Zm4.63-4.63h-9.26V40.13h9.26Zm.055-3.087H77.065a10.508,10.508,0,0,0-.262-1.543h9.879a10.253,10.253,0,0,0-.24,1.543Zm0,0" transform="translate(-57.835 -0.001)" fill="#fff"/>
  <path id="Path_25722" data-name="Path 25722" d="M48.776,5.41A3.09,3.09,0,0,1,51.862,8.5a.772.772,0,0,0,1.543,0A3.09,3.09,0,0,1,56.493,5.41a.772.772,0,1,0,0-1.543A3.09,3.09,0,0,1,53.406.779a.772.772,0,0,0-1.543,0,3.09,3.09,0,0,1-3.087,3.087.772.772,0,0,0,0,1.543Zm3.859-2.074a4.67,4.67,0,0,0,1.3,1.3,4.675,4.675,0,0,0-1.3,1.3,4.67,4.67,0,0,0-1.3-1.3A4.665,4.665,0,0,0,52.634,3.336Zm0,0" transform="translate(-43.374 -0.007)" fill="#fff"/>
  <path id="Path_25723" data-name="Path 25723" d="M8.493,85.41a.772.772,0,0,0,0-1.543A3.09,3.09,0,0,1,5.406,80.78a.772.772,0,0,0-1.543,0A3.09,3.09,0,0,1,.776,83.866a.772.772,0,0,0,0,1.543A3.09,3.09,0,0,1,3.862,88.5a.772.772,0,0,0,1.543,0A3.09,3.09,0,0,1,8.493,85.41Zm-3.858.53a4.67,4.67,0,0,0-1.3-1.3,4.675,4.675,0,0,0,1.3-1.3,4.68,4.68,0,0,0,1.3,1.3A4.675,4.675,0,0,0,4.634,85.94Zm0,0" transform="translate(-0.004 -72.29)" fill="#fff"/>
</svg>
