<svg id="customer" xmlns="http://www.w3.org/2000/svg" width="42.443" height="46.302" viewBox="0 0 42.443 46.302">
  <path id="Path_25724" data-name="Path 25724" d="M90.238,190.662v-7.717A6.953,6.953,0,0,0,83.292,176H70.945A6.953,6.953,0,0,0,64,182.945v10.032h1.543V182.945a5.408,5.408,0,0,1,5.4-5.4h1.224l4.4,4.4a.772.772,0,0,0,1.091,0l4.4-4.4h1.224a5.408,5.408,0,0,1,5.4,5.4v7.717ZM77.119,180.311l-2.767-2.767h5.535Zm0,0" transform="translate(-57.826 -159.023)" fill="#fff"/>
  <path id="Path_25725" data-name="Path 25725" d="M120,264h1.543v6.945H120Zm0,0" transform="translate(-108.425 -238.534)" fill="#fff"/>
  <path id="Path_25726" data-name="Path 25726" d="M264,264h1.543v5.4H264Zm0,0" transform="translate(-238.534 -238.534)" fill="#fff"/>
  <path id="Path_25727" data-name="Path 25727" d="M41.672,338.267H31.831a11.882,11.882,0,0,0-5.542-1.459c-.058-.005-.119-.008-.174-.008a11.947,11.947,0,0,0-5.717,1.457l-5.735.009a3.087,3.087,0,0,0-3.087,3.087,1.29,1.29,0,0,0,.011.183,3.032,3.032,0,0,0,.1.626l-4.35-1.993-.07-.035-2.6-1.187A3.292,3.292,0,0,0,0,341.94v.17a3.264,3.264,0,0,0,1.823,2.943l9.978,5a5.467,5.467,0,0,0,2.414.564H41.672a.772.772,0,0,0,.772-.772v-10.8a.772.772,0,0,0-.772-.772Zm-10.8,10.8H14.215a3.934,3.934,0,0,1-1.73-.4l-9.974-5a1.731,1.731,0,0,1-.968-1.559v-.17a1.749,1.749,0,0,1,2.48-1.589L6.6,341.527l.069.034L12.8,344.37a.775.775,0,0,0,.323.07h8.489V342.9H14.662a1.536,1.536,0,0,1-1.536-1.473.747.747,0,0,0-.007-.077,1.544,1.544,0,0,1,1.543-1.537h5.919a.77.77,0,0,0,.378-.1l.185-.1a10.478,10.478,0,0,1,4.946-1.27.744.744,0,0,0,.142.015,10.318,10.318,0,0,1,4.636,1.15Zm10.032,0H32.412v-9.26H40.9Zm0,0" transform="translate(0 -304.312)" fill="#fff"/>
  <path id="Path_25728" data-name="Path 25728" d="M352,432h1.543v1.543H352Zm0,0" transform="translate(-318.045 -390.328)" fill="#fff"/>
  <path id="Path_25729" data-name="Path 25729" d="M142.174,15.434a6.18,6.18,0,0,0,6.174-6.174V6.174a6.174,6.174,0,0,0-12.347,0V9.26A6.181,6.181,0,0,0,142.174,15.434Zm-4.63-9.26a4.63,4.63,0,0,1,9.26,0V9.26a4.63,4.63,0,0,1-9.26,0Zm0,0" transform="translate(-122.881)" fill="#fff"/>
  <path id="Path_25730" data-name="Path 25730" d="M169.543,36.742a1.549,1.549,0,0,1,1.029-1.456l-.515-1.454A3.093,3.093,0,0,0,168,36.742v.772h1.543Zm0,0" transform="translate(-151.794 -30.569)" fill="#fff"/>
</svg>
