<svg id="Group_15617" data-name="Group 15617" xmlns="http://www.w3.org/2000/svg" width="23.09" height="23.09" viewBox="0 0 23.09 23.09">
  <path id="Path_211" data-name="Path 211" d="M296.307,508.668q-2.716.442-5.452.816Q293.591,509.11,296.307,508.668Zm0,0" transform="translate(-280.712 -488.398)" fill="#192445"/>
  <path id="Path_212" data-name="Path 212" d="M301.938,507.793c-.866.16-1.731.3-2.6.454C300.205,508.1,301.071,507.952,301.938,507.793Zm0,0" transform="translate(-287.29 -488.266)" fill="#192445"/>
  <path id="Path_213" data-name="Path 213" d="M284,510.34q-3.178.358-6.39.63Q280.818,510.7,284,510.34Zm0,0" transform="translate(-268.423 -488.651)" fill="#192445"/>
  <path id="Path_214" data-name="Path 214" d="M289.51,509.738c-1.019.136-2.042.262-3.064.381C287.466,510,288.491,509.876,289.51,509.738Zm0,0" transform="translate(-275.166 -488.56)" fill="#192445"/>
  <path id="Path_215" data-name="Path 215" d="M308.959,506.41c-.764.162-1.528.325-2.292.48C307.43,506.735,308.2,506.571,308.959,506.41Zm0,0" transform="translate(-294.147 -488.057)" fill="#192445"/>
  <path id="Path_216" data-name="Path 216" d="M326.335,502.113c-.617.176-1.233.34-1.851.514C325.1,502.455,325.718,502.289,326.335,502.113Zm0,0" transform="translate(-310.969 -487.408)" fill="#192445"/>
  <path id="Path_217" data-name="Path 217" d="M321.075,503.543c-.67.176-1.343.355-2.016.524Q320.068,503.813,321.075,503.543Zm0,0" transform="translate(-305.868 -487.624)" fill="#192445"/>
  <path id="Path_218" data-name="Path 218" d="M314.209,505.254c-.71.17-1.426.322-2.142.48C312.783,505.576,313.5,505.42,314.209,505.254Zm0,0" transform="translate(-299.238 -487.882)" fill="#192445"/>
  <path id="Path_219" data-name="Path 219" d="M276.916,511.09q-1.716.144-3.436.255Q275.2,511.234,276.916,511.09Zm0,0" transform="translate(-262.903 -488.764)" fill="#192445"/>
  <path id="Path_220" data-name="Path 220" d="M23.1,11.545A11.545,11.545,0,1,0,11.555,23.09h.2V14.105H9.272V11.214h2.481V9.083a3.473,3.473,0,0,1,3.708-3.811,20.425,20.425,0,0,1,2.224.114V7.968H16.168c-1.2,0-1.43.57-1.43,1.4v1.842H17.6l-.374,2.891h-2.49v8.547A11.555,11.555,0,0,0,23.1,11.545Zm0,0" transform="translate(-0.01 0)" fill="#192445"/>
  <path id="Path_221" data-name="Path 221" d="M271.7,511.43q-3.4.219-6.811.34Q268.308,511.653,271.7,511.43Zm0,0" transform="translate(-256.338 -488.815)" fill="#192445"/>
  <path id="Path_222" data-name="Path 222" d="M264.112,511.836q-1.8.059-3.608.089Q262.31,511.9,264.112,511.836Zm0,0" transform="translate(-250.512 -488.877)" fill="#192445"/>
</svg>
