<svg id="healthcare-covid19-coronavirus-hand-hearth" xmlns="http://www.w3.org/2000/svg" width="37.334" height="37.51" viewBox="0 0 37.334 37.51">
  <path id="Path_25751" data-name="Path 25751" d="M33.154,11.509H31.272V9.627A.627.627,0,0,0,30.645,9H28.136a.627.627,0,0,0-.627.627v1.882H25.627a.627.627,0,0,0-.627.627v2.509a.627.627,0,0,0,.627.627h1.882v1.882a.627.627,0,0,0,.627.627h2.509a.627.627,0,0,0,.627-.627V15.272h1.882a.627.627,0,0,0,.627-.627V12.136A.627.627,0,0,0,33.154,11.509Zm-.627,2.509H30.645a.627.627,0,0,0-.627.627v1.882H28.763V14.645a.627.627,0,0,0-.627-.627H26.254V12.763h1.882a.627.627,0,0,0,.627-.627V10.254h1.254v1.882a.627.627,0,0,0,.627.627h1.882Z" transform="translate(-10.724 -4.734)"/>
  <path id="Path_25752" data-name="Path 25752" d="M49.766,16.678a2.872,2.872,0,0,0,.019-.332,2.522,2.522,0,0,0-1.995-2.453,2.554,2.554,0,0,0-2.948,1.863L42.082,23.7a1.024,1.024,0,0,0-.119.056L36.418,27a5.656,5.656,0,0,0-2.791,4.867v5.909a.627.627,0,0,0-.627.627v5.018a.627.627,0,0,0,.627.627h8.781a.627.627,0,0,0,.627-.627V38.406a.627.627,0,0,0-.627-.627V36.4a1.906,1.906,0,0,1,.627-1.405l4.24-3.77a3.093,3.093,0,0,0,.953-1.537l2.722-10.18a2.481,2.481,0,0,0,.088-.652A2.521,2.521,0,0,0,49.766,16.678Zm-3.726-.552a1.325,1.325,0,0,1,1.493-1,1.254,1.254,0,0,1,1,1.223v.013a2.572,2.572,0,0,0-2.44,1.919l-1.75,5.4a2.634,2.634,0,0,0-.841-.238ZM41.781,42.8H34.254V39.033h7.527Zm7.96-23.616L47.013,29.367a1.87,1.87,0,0,1-.565.916L42.2,34.053A3.171,3.171,0,0,0,41.154,36.4v1.38H34.882V31.87a4.423,4.423,0,0,1,2.17-3.789l5.539-3.243a1.254,1.254,0,0,1,1.719.458,1.292,1.292,0,0,1,.125.953,1.254,1.254,0,0,1-.59.759l-3.594,2.076a.627.627,0,0,0,.627,1.085l3.594-2.076a2.476,2.476,0,0,0,1.173-1.524,2.513,2.513,0,0,0-.251-1.9l-.038-.056,1.938-5.978a1.325,1.325,0,0,1,1.493-1,1.254,1.254,0,0,1,1,1.223A1.08,1.08,0,0,1,49.741,19.181Z" transform="translate(-13.706 -6.541)"/>
  <path id="Path_25753" data-name="Path 25753" d="M19.652,37.78V31.871A5.656,5.656,0,0,0,16.861,27l-5.545-3.255c-.038-.019-.082-.031-.119-.05L8.456,15.8a2.576,2.576,0,0,0-2.967-1.907,2.522,2.522,0,0,0-1.995,2.453,2.871,2.871,0,0,0,.019.332A2.521,2.521,0,0,0,2.24,18.856a2.773,2.773,0,0,0,.082.652L5.05,29.682A3.084,3.084,0,0,0,6,31.225l4.234,3.77a1.889,1.889,0,0,1,.634,1.405v1.38a.627.627,0,0,0-.627.627v5.018a.627.627,0,0,0,.627.627h8.781a.627.627,0,0,0,.627-.627V38.407A.627.627,0,0,0,19.652,37.78ZM4.749,16.347a1.254,1.254,0,0,1,.991-1.223,1.355,1.355,0,0,1,1.518,1.047l2.522,7.27a2.635,2.635,0,0,0-.841.238L7.2,18.31a2.6,2.6,0,0,0-2.453-1.951Zm6.323,17.707-4.24-3.77a1.86,1.86,0,0,1-.565-.922L3.532,19.182a1.33,1.33,0,0,1-.038-.326,1.254,1.254,0,0,1,.991-1.223A1.345,1.345,0,0,1,6,18.668l1.926,5.946-.038.056a2.513,2.513,0,0,0-.251,1.9A2.476,2.476,0,0,0,8.807,28.1L12.4,30.171a.627.627,0,0,0,.627-1.085L9.434,27.01a1.254,1.254,0,0,1-.59-.759A1.292,1.292,0,0,1,8.97,25.3a1.254,1.254,0,0,1,1.712-.464l5.545,3.249a4.423,4.423,0,0,1,2.17,3.789V37.78H12.125V36.4A3.155,3.155,0,0,0,11.072,34.054ZM19.025,42.8H11.5V39.034h7.527Z" transform="translate(-2.24 -6.542)"/>
  <path id="Path_25754" data-name="Path 25754" d="M34.511,4.039a6.269,6.269,0,0,0-8.873,0h0A6.271,6.271,0,1,0,16.765,12.9l8.43,8.43a.627.627,0,0,0,.887,0l8.43-8.43a6.276,6.276,0,0,0,0-8.866ZM25.637,20l-7.987-7.987A5.018,5.018,0,0,1,21.2,3.454a4.965,4.965,0,0,1,3.546,1.472l.445.445a.627.627,0,0,0,.887,0l.447-.447a5.016,5.016,0,1,1,7.1,7.092Z" transform="translate(-6.971 -2.199)"/>
</svg>
