<svg id="incentive" xmlns="http://www.w3.org/2000/svg" width="37.825" height="37.51" viewBox="0 0 37.825 37.51">
  <g id="Group_36494" data-name="Group 36494" transform="translate(2.19 31.258)">
    <g id="Group_36493" data-name="Group 36493">
      <path id="Path_25755" data-name="Path 25755" d="M33.657,402.016h-5a.625.625,0,0,0-.625.625v5a.625.625,0,0,0,.625.625h5a.625.625,0,0,0,.625-.625v-5A.625.625,0,0,0,33.657,402.016Zm-.625,5H29.281v-3.751h3.751Z" transform="translate(-28.031 -402.016)"/>
    </g>
  </g>
  <g id="Group_36496" data-name="Group 36496" transform="translate(11.568 29.383)">
    <g id="Group_36495" data-name="Group 36495">
      <path id="Path_25756" data-name="Path 25756" d="M153.658,378.016h-5a.625.625,0,0,0-.625.625v6.877a.625.625,0,0,0,.625.625h5a.625.625,0,0,0,.625-.625v-6.877A.625.625,0,0,0,153.658,378.016Zm-.625,6.877h-3.751v-5.627h3.751Z" transform="translate(-148.031 -378.016)"/>
    </g>
  </g>
  <g id="Group_36498" data-name="Group 36498" transform="translate(20.945 26.882)">
    <g id="Group_36497" data-name="Group 36497">
      <path id="Path_25757" data-name="Path 25757" d="M273.657,346.016h-5a.625.625,0,0,0-.625.625v9.377a.625.625,0,0,0,.625.625h5a.625.625,0,0,0,.625-.625v-9.377A.625.625,0,0,0,273.657,346.016Zm-.625,9.378h-3.751v-8.127h3.751Z" transform="translate(-268.031 -346.016)"/>
    </g>
  </g>
  <g id="Group_36500" data-name="Group 36500" transform="translate(30.323 21.256)">
    <g id="Group_36499" data-name="Group 36499">
      <path id="Path_25758" data-name="Path 25758" d="M393.657,274.016h-5a.625.625,0,0,0-.625.625v15a.625.625,0,0,0,.625.625h5a.625.625,0,0,0,.625-.625v-15A.625.625,0,0,0,393.657,274.016Zm-.625,15h-3.751V275.266h3.751Z" transform="translate(-388.031 -274.016)"/>
    </g>
  </g>
  <g id="Group_36502" data-name="Group 36502" transform="translate(21.57 2.695)">
    <g id="Group_36501" data-name="Group 36501">
      <path id="Path_25759" data-name="Path 25759" d="M287.907,39.431h-1.489l.075-.15a1.922,1.922,0,0,0-3.367-1.849l-.825,1.375-.825-1.375a1.922,1.922,0,0,0-3.367,1.849l.075.15h-1.529a.625.625,0,0,0-.625.625v3.126a.625.625,0,0,0,.625.625h.625v5.626a.625.625,0,0,0,.625.625h8.752a.625.625,0,0,0,.625-.625V43.807h.625a.625.625,0,0,0,.625-.625V40.056A.625.625,0,0,0,287.907,39.431Zm-7.5,9.377H278.53v-5h1.876Zm0-6.252H277.28V40.681h3.126Zm-.824-3.126-.354-.709a.672.672,0,0,1,1.177-.646l.813,1.355Zm3.325,9.377h-1.25v-5h1.25Zm0-6.252h-1.25V40.681h1.25Zm1.292-4.481a.672.672,0,0,1,1.177.646l-.354.709h-1.635Zm1.834,10.733h-1.876v-5h1.876Zm1.25-6.252h-3.126V40.681h3.126Z" transform="translate(-276.029 -36.499)"/>
    </g>
  </g>
  <g id="Group_36504" data-name="Group 36504" transform="translate(19.147 2.947)">
    <g id="Group_36503" data-name="Group 36503">
      <path id="Path_25760" data-name="Path 25760" d="M246.6,39.73a10.045,10.045,0,0,0-1.585,2.073l1.084.624a8.781,8.781,0,0,1,1.388-1.815Z" transform="translate(-245.016 -39.73)"/>
    </g>
  </g>
  <g id="Group_36506" data-name="Group 36506" transform="translate(25.245 18.462)">
    <g id="Group_36505" data-name="Group 36505">
      <path id="Path_25761" data-name="Path 25761" d="M325.625,238.555a8.77,8.77,0,0,1-2.256-.293l-.322,1.208a10.034,10.034,0,0,0,2.578.335h.009Z" transform="translate(-323.047 -238.262)"/>
    </g>
  </g>
  <g id="Group_36508" data-name="Group 36508" transform="translate(27.794 0)">
    <g id="Group_36507" data-name="Group 36507">
      <path id="Path_25762" data-name="Path 25762" d="M355.7,2.016h-.028l.028,1.25a8.774,8.774,0,0,1,2.239.289l.319-1.209A10.025,10.025,0,0,0,355.7,2.016Z" transform="translate(-355.668 -2.016)"/>
    </g>
  </g>
  <g id="Group_36510" data-name="Group 36510" transform="translate(20.76 16.201)">
    <g id="Group_36509" data-name="Group 36509">
      <path id="Path_25763" data-name="Path 25763" d="M266.539,209.328l-.883.885a10.03,10.03,0,0,0,2.071,1.587l.625-1.083A8.8,8.8,0,0,1,266.539,209.328Z" transform="translate(-265.656 -209.328)"/>
    </g>
  </g>
  <g id="Group_36512" data-name="Group 36512" transform="translate(17.819 7.435)">
    <g id="Group_36511" data-name="Group 36511">
      <path id="Path_25764" data-name="Path 25764" d="M228.36,97.156a9.93,9.93,0,0,0-.332,2.537v.05l1.251-.019a8.768,8.768,0,0,1,.291-2.247Z" transform="translate(-228.027 -97.156)"/>
    </g>
  </g>
  <g id="Group_36514" data-name="Group 36514" transform="translate(18.163 12.285)">
    <g id="Group_36513" data-name="Group 36513">
      <path id="Path_25765" data-name="Path 25765" d="M233.634,159.223l-1.208.325a9.947,9.947,0,0,0,1,2.41l1.081-.628A8.68,8.68,0,0,1,233.634,159.223Z" transform="translate(-232.426 -159.223)"/>
    </g>
  </g>
  <g id="Group_36516" data-name="Group 36516" transform="translate(30.096 17.581)">
    <g id="Group_36515" data-name="Group 36515">
      <path id="Path_25766" data-name="Path 25766" d="M387.233,227a8.7,8.7,0,0,1-2.108.876l.324,1.208a9.96,9.96,0,0,0,2.411-1Z" transform="translate(-385.125 -226.996)"/>
    </g>
  </g>
  <g id="Group_36518" data-name="Group 36518" transform="translate(34.014 14.376)">
    <g id="Group_36517" data-name="Group 36517">
      <path id="Path_25767" data-name="Path 25767" d="M436.653,185.984a8.784,8.784,0,0,1-1.391,1.812l.885.884a10.047,10.047,0,0,0,1.589-2.07Z" transform="translate(-435.262 -185.984)"/>
    </g>
  </g>
  <g id="Group_36520" data-name="Group 36520" transform="translate(22.797 0.346)">
    <g id="Group_36519" data-name="Group 36519">
      <path id="Path_25768" data-name="Path 25768" d="M294.132,6.441a9.944,9.944,0,0,0-2.409,1.006l.629,1.081a8.7,8.7,0,0,1,2.106-.88Z" transform="translate(-291.723 -6.441)"/>
    </g>
  </g>
  <g id="Group_36522" data-name="Group 36522" transform="translate(35.387 4.968)">
    <g id="Group_36521" data-name="Group 36521">
      <path id="Path_25769" data-name="Path 25769" d="M453.92,65.594l-1.08.63a8.7,8.7,0,0,1,.882,2.105L454.928,68A9.945,9.945,0,0,0,453.92,65.594Z" transform="translate(-452.84 -65.594)"/>
    </g>
  </g>
  <g id="Group_36524" data-name="Group 36524" transform="translate(36.279 9.965)">
    <g id="Group_36523" data-name="Group 36523">
      <path id="Path_25770" data-name="Path 25770" d="M464.542,129.57a8.777,8.777,0,0,1-.3,2.265l1.208.322a10.04,10.04,0,0,0,.338-2.587v-.038Z" transform="translate(-464.246 -129.532)"/>
    </g>
  </g>
  <g id="Group_36526" data-name="Group 36526" transform="translate(32.173 1.322)">
    <g id="Group_36525" data-name="Group 36525">
      <path id="Path_25771" data-name="Path 25771" d="M412.329,18.937l-.622,1.084a8.785,8.785,0,0,1,1.816,1.386l.881-.887A10.031,10.031,0,0,0,412.329,18.937Z" transform="translate(-411.707 -18.937)"/>
    </g>
  </g>
  <g id="Group_36528" data-name="Group 36528" transform="translate(0 18.763)">
    <g id="Group_36527" data-name="Group 36527">
      <path id="Path_25772" data-name="Path 25772" d="M19.174,242.75l-3.751-.625-.206,1.233,2.31.385-3.666,2.749H7.818a.623.623,0,0,0-.315.085L0,250.954l.63,1.08,7.356-4.291H14.07a.626.626,0,0,0,.375-.125L18.2,244.8l-.369,2.212,1.233.206.625-3.751A.626.626,0,0,0,19.174,242.75Z" transform="translate(-0.001 -242.125)"/>
    </g>
  </g>
</svg>
