<svg id="laugh" xmlns="http://www.w3.org/2000/svg" width="38.187" height="40.01" viewBox="0 0 38.187 40.01">
  <path id="Path_25773" data-name="Path 25773" d="M33.2,208.891a3.224,3.224,0,0,0-3.561-4.72l-1.613-5.783A2.872,2.872,0,0,0,24.49,196.4l-2.259.63a.586.586,0,1,0,.315,1.129l2.259-.63a1.7,1.7,0,0,1,2.09,1.178l1.9,6.81-5.5,1.534a3.633,3.633,0,0,1-3.205-.618,3.967,3.967,0,0,0-3.493-.706l-2.1.585-.683-2.45a1.7,1.7,0,0,1,1.178-2.09l.465-.13a4.01,4.01,0,0,1,1.661-.076.586.586,0,0,0,.685-.731,1.305,1.305,0,0,1,.905-1.606l1.31-.365a.586.586,0,1,0-.315-1.129l-1.31.365a2.48,2.48,0,0,0-1.807,2.242,5,5,0,0,0-1.444.171l-.465.13a2.872,2.872,0,0,0-1.993,3.534l1.223,4.386a3.223,3.223,0,0,0,1.731,6.206l.062.222A8.166,8.166,0,1,0,31.43,210.6l-.062-.221a3.2,3.2,0,0,0,1.829-1.488Zm-20.289,3.291a2.055,2.055,0,0,1,1.313-2.494l1.1,3.948A2.055,2.055,0,0,1,12.908,212.182Zm12.535,7.348a7,7,0,0,1-8.615-4.858l-2.018-7.234,2.1-.585a2.805,2.805,0,0,1,2.467.509,4.8,4.8,0,0,0,2.921,1,4.872,4.872,0,0,0,1.31-.181l5.5-1.534,1.192,4.273A7,7,0,0,1,25.443,219.53Zm6.733-11.215a2.038,2.038,0,0,1-1.123.934l-1.1-3.948a2.053,2.053,0,0,1,2.224,3.014Z" transform="translate(-11.661 -180.95)"/>
  <path id="Path_25774" data-name="Path 25774" d="M143.707,397.2l-5.219,1.455a.586.586,0,0,0-.407.722,3.3,3.3,0,0,0,6.348-1.771A.586.586,0,0,0,143.707,397.2Zm-.6,2.335a2.123,2.123,0,0,1-3.657.07l3.932-1.1A2.112,2.112,0,0,1,143.1,399.534Z" transform="translate(-128.182 -366.14)"/>
  <path id="Path_25775" data-name="Path 25775" d="M105.507,375.75a1.666,1.666,0,0,0-3.21.9.586.586,0,1,0,1.129-.315.494.494,0,1,1,.951-.265.586.586,0,1,0,1.129-.315Z" transform="translate(-95.158 -345.263)"/>
  <path id="Path_25776" data-name="Path 25776" d="M191.31,350.09a1.668,1.668,0,0,0-1.157,2.052.586.586,0,1,0,1.129-.315.494.494,0,1,1,.951-.265.586.586,0,0,0,1.129-.315A1.668,1.668,0,0,0,191.31,350.09Z" transform="translate(-176.148 -322.675)"/>
  <path id="Path_25777" data-name="Path 25777" d="M245.264,46.55c-.045-.013-.091-.024-.137-.035A7.983,7.983,0,0,0,230.3,42.3c-.046-.015-.092-.03-.138-.043a3.16,3.16,0,0,0-1.851,6.042l-.057.2a7.982,7.982,0,0,0,9.508,9.949.586.586,0,0,0-.27-1.141,6.809,6.809,0,0,1-8.11-8.488l.576-2.028a.586.586,0,1,0-1.128-.32l-.2.7a1.988,1.988,0,0,1,1.136-3.8c-.076.185-.147.372-.209.563a.586.586,0,1,0,1.115.363,6.8,6.8,0,0,1,1.607-2.661,8,8,0,0,0,7.211,4.541,7.933,7.933,0,0,0,3.875-1.015c.144-.08.285-.166.423-.255a6.771,6.771,0,0,1-.094,3.36l-1.216,4.28a6.807,6.807,0,0,1-2.785,3.813.586.586,0,1,0,.648.977,7.981,7.981,0,0,0,3.265-4.47l.058-.2a3.16,3.16,0,0,0,1.6-6.112Zm-2.471-2.413a6.76,6.76,0,0,1-5.176.6,6.841,6.841,0,0,1-4.411-3.9,6.819,6.819,0,0,1,9.884,2.248,6.937,6.937,0,0,1,.321.657A6.864,6.864,0,0,1,242.792,44.137Zm3.521,6a1.988,1.988,0,0,1-2.33,1.4l.837-2.949a8.11,8.11,0,0,0,.2-.884A1.991,1.991,0,0,1,246.313,50.134Z" transform="translate(-209.374 -35.419)"/>
  <path id="Path_25778" data-name="Path 25778" d="M302.055,191.3a3.227,3.227,0,0,0,3.988-2.224.586.586,0,0,0-.4-.724l-5.085-1.444a.586.586,0,0,0-.724.4,3.229,3.229,0,0,0,2.224,3.988Zm2.619-2a2.058,2.058,0,0,1-3.794-1.078Z" transform="translate(-277.197 -172.285)"/>
  <path id="Path_25779" data-name="Path 25779" d="M287.79,139.8a.585.585,0,0,0,.724-.4,1.64,1.64,0,1,0-3.155-.9.586.586,0,1,0,1.128.32.467.467,0,0,1,.9.255A.586.586,0,0,0,287.79,139.8Z" transform="translate(-263.95 -126.578)"/>
  <path id="Path_25780" data-name="Path 25780" d="M373.39,164.111a.586.586,0,0,0,.724-.4,1.64,1.64,0,0,0-3.155-.9.586.586,0,0,0,1.128.32.467.467,0,0,1,.9.255A.586.586,0,0,0,373.39,164.111Z" transform="translate(-342.861 -148.989)"/>
  <path id="Path_25781" data-name="Path 25781" d="M328.74,375.778l-4.548-.665a1.254,1.254,0,0,0-1.382.891l-.266.926a1.254,1.254,0,0,0,.7,1.489l4.208,1.85a1.249,1.249,0,0,0,1.7-.8l.606-2.111a1.25,1.25,0,0,0-1.02-1.581Zm-.107,1.258-.606,2.111a.077.077,0,0,1-.105.049l-4.208-1.85a.077.077,0,0,1-.043-.092l.266-.926a.078.078,0,0,1,.074-.056h.011l4.548.665a.077.077,0,0,1,.063.1Z" transform="translate(-298.206 -345.787)"/>
  <path id="Path_25782" data-name="Path 25782" d="M316.344,305.551l.067.961a1.254,1.254,0,0,0,1.165,1.16l4.587.3.081,0a1.25,1.25,0,0,0,1.246-1.336l-.152-2.191a1.249,1.249,0,0,0-1.5-1.137l-4.5.931A1.254,1.254,0,0,0,316.344,305.551Zm1.231-.162,4.5-.931.017,0a.078.078,0,0,1,.076.072l.152,2.191a.077.077,0,0,1-.082.082l-4.587-.3a.077.077,0,0,1-.072-.072h0l-.067-.961A.077.077,0,0,1,317.574,305.389Z" transform="translate(-292.531 -279.584)"/>
  <path id="Path_25783" data-name="Path 25783" d="M291.81,425.812l-4.046-2.18a1.253,1.253,0,0,0-1.6.365l-.567.779h0a1.254,1.254,0,0,0,.147,1.638l3.321,3.177a1.249,1.249,0,0,0,.863.347q.056,0,.112,0a1.249,1.249,0,0,0,.9-.51l1.292-1.776a1.25,1.25,0,0,0-.418-1.835Zm-.53,1.145-1.292,1.776a.077.077,0,0,1-.116.01l-3.321-3.177a.078.078,0,0,1-.009-.1l.567-.779a.077.077,0,0,1,.1-.023l4.046,2.18a.077.077,0,0,1,.026.113Z" transform="translate(-263.968 -390.39)"/>
  <path id="Path_25784" data-name="Path 25784" d="M91.624,49.394l4.192,1.886a1.239,1.239,0,0,0,.509.109,1.254,1.254,0,0,0,1.064-.588l.51-.818h0a1.254,1.254,0,0,0-.264-1.623l-3.54-2.932a1.249,1.249,0,0,0-1.857.3l-1.161,1.864a1.249,1.249,0,0,0,.548,1.8Zm.447-1.18,1.161-1.864a.074.074,0,0,1,.053-.035H93.3a.074.074,0,0,1,.048.018l3.54,2.932a.077.077,0,0,1,.016.1l-.51.818a.077.077,0,0,1-.1.03L92.1,48.325a.077.077,0,0,1-.034-.111Z" transform="translate(-84.696 -41.614)"/>
  <path id="Path_25785" data-name="Path 25785" d="M85.2,126.511l4.584.338q.046,0,.092,0a1.254,1.254,0,0,0,1.223-.991l.2-.943a1.254,1.254,0,0,0-.8-1.435l-4.329-1.544a1.249,1.249,0,0,0-1.642.919l-.454,2.149a1.25,1.25,0,0,0,1.131,1.5Zm.016-1.262.454-2.149a.074.074,0,0,1,.038-.051.076.076,0,0,1,.037-.01.08.08,0,0,1,.026,0l4.329,1.544a.078.078,0,0,1,.05.089l-.2.943a.078.078,0,0,1-.081.061l-4.584-.338a.077.077,0,0,1-.07-.093Z" transform="translate(-78.389 -112.343)"/>
  <path id="Path_25786" data-name="Path 25786" d="M154.824,6.7a1.254,1.254,0,0,0,1.642.088l.758-.594h0a1.254,1.254,0,0,0,.307-1.615L155.208.617A1.249,1.249,0,0,0,153.36.265L151.631,1.62a1.25,1.25,0,0,0-.1,1.879Zm-2.47-4.162,1.729-1.354a.074.074,0,0,1,.046-.017l.016,0a.075.075,0,0,1,.052.037l2.324,3.966a.077.077,0,0,1-.019.1l-.758.594a.077.077,0,0,1-.1-.005l-3.294-3.205a.077.077,0,0,1,.006-.116Z" transform="translate(-140.251 0)"/>
</svg>
