<svg id="rating" xmlns="http://www.w3.org/2000/svg" width="50.888" height="40.01" viewBox="0 0 50.888 40.01">
  <path id="Path_25787" data-name="Path 25787" d="M15.766,69.755a7.266,7.266,0,0,1,1.851,1.065V68.273a3.447,3.447,0,0,1,1.186-2.5,6.951,6.951,0,0,1,2.122-1.324,4.916,4.916,0,0,1-.457-2.074V57.838a3.126,3.126,0,0,1,3.113-3.113h3.727a3.121,3.121,0,0,1,3.113,3.113v4.536a4.939,4.939,0,0,1-.456,2.076,6.936,6.936,0,0,1,2.1,1.3,3.464,3.464,0,0,1,1.206,2.519v2.55a7.265,7.265,0,0,1,1.857-1.071,4.942,4.942,0,0,1-.453-2.068V63.149A3.126,3.126,0,0,1,37.8,60.036H41.52a3.121,3.121,0,0,1,3.113,3.113v4.536a4.918,4.918,0,0,1-.451,2.065,7.036,7.036,0,0,1,2.161,1.338,3.44,3.44,0,0,1,1.186,2.5v5.474h2.614a.746.746,0,0,1,.744.747.734.734,0,0,1-.166.468l-2.733,3.978,2.767,4.023a.745.745,0,0,1-.189,1.034.759.759,0,0,1-.423.132H33.823l.276,3.544a1.63,1.63,0,0,1-2.33,1.589l-6.322-2.612L19.032,94.61a1.626,1.626,0,0,1-1.9-.5,1.668,1.668,0,0,1-.344-1.124l.276-3.544H11.735a.745.745,0,0,1,0-1.49h5.449l.146-1.885-4.46-5.235a1.444,1.444,0,0,1-.206-.282H2.161L4.41,83.817a.745.745,0,0,1,.006.856L2.161,87.95h6.2a.745.745,0,0,1,0,1.49H.747a.745.745,0,0,1-.578-1.214L2.9,84.251.136,80.228a.747.747,0,0,1,.64-1.169H3.381V75.275a.745.745,0,1,1,1.49,0v3.784h7.72a1.651,1.651,0,0,1,.479-.6,1.825,1.825,0,0,1,.71-.321l3.837-.927V73.584a2.016,2.016,0,0,0-.735-1.431,5.686,5.686,0,0,0-1.955-1.13,4.964,4.964,0,0,1-7.367,0,5.187,5.187,0,0,0-2.251,1.451.744.744,0,0,1-1.161-.933A6.41,6.41,0,0,1,6.72,69.753a4.942,4.942,0,0,1-.453-2.068V63.149a3.126,3.126,0,0,1,3.116-3.113h6.094a.745.745,0,0,1,.744.747v6.9a4.946,4.946,0,0,1-.454,2.071Zm27.377-3.291-4.209-1.426-2.761,1.355v1.29a3.485,3.485,0,0,0,6.97,0v-1.22Zm-6.97-1.724,2.341-1.147a.738.738,0,0,1,.609-.062l4.02,1.361V63.149a1.63,1.63,0,0,0-1.623-1.623H37.8a1.631,1.631,0,0,0-1.623,1.623v1.592ZM7.757,63.771H14.73V61.526H9.382a1.635,1.635,0,0,0-1.626,1.623Zm6.973,1.49H7.757v2.423a3.486,3.486,0,0,0,6.973,0V65.262Zm14.2-4.223a5.454,5.454,0,0,1-4.525-1.2,4.086,4.086,0,0,1-2.448.578v1.958a3.486,3.486,0,0,0,6.973,0V61.039Zm-6.973-2.121a2.574,2.574,0,0,0,2.048-.611.744.744,0,0,1,1.048.076,3.96,3.96,0,0,0,3.877,1.152v-1.7a1.635,1.635,0,0,0-1.623-1.623H23.582a1.635,1.635,0,0,0-1.623,1.623Zm14.014,12.1a5.744,5.744,0,0,0-1.995,1.161,1.991,1.991,0,0,0-.7,1.4v3.623l3.927.949a1.677,1.677,0,0,1,1.1.9h7.739V73.584a2,2,0,0,0-.721-1.417,5.685,5.685,0,0,0-1.978-1.144c-.054.059-.11.118-.166.175a4.959,4.959,0,0,1-7.032,0q-.089-.085-.169-.178Zm-14.205-5.3a5.644,5.644,0,0,0-1.938,1.133,2.011,2.011,0,0,0-.721,1.423V76.85l1.319-.318,3.632-5.914a1.629,1.629,0,0,1,2.784.011l3.626,5.9,1.316.318V68.274a2.012,2.012,0,0,0-.733-1.434,5.7,5.7,0,0,0-1.927-1.124,4.959,4.959,0,0,1-7.356,0ZM38.229,80.549a1.617,1.617,0,0,1-.175.242L36.8,82.262a.743.743,0,1,1-1.13-.966l1.251-1.471a.147.147,0,0,0,.025-.135.134.134,0,0,0-.1-.09q-3.495-.841-6.982-1.685a.732.732,0,0,1-.516-.344l-3.787-6.162a.14.14,0,0,0-.242-.011l-3.792,6.173a.752.752,0,0,1-.462.332Q17.6,78.74,14.13,79.58c-.07.02-.144.02-.18.093a.137.137,0,0,0,.017.152l4.668,5.48a.735.735,0,0,1,.2.569q-.279,3.609-.561,7.224a.14.14,0,0,0,.192.138l6.694-2.764a.731.731,0,0,1,.566,0l6.613,2.73c.11.039.287.09.273-.1q-.279-3.613-.561-7.224a.753.753,0,0,1,.178-.541l1.254-1.468a.743.743,0,0,1,1.13.966l-1.051,1.234.144,1.885H48.73l-2.248-3.268a.741.741,0,0,1-.006-.854l2.254-3.279Z" transform="translate(0 -54.725)"/>
</svg>
