<svg id="salary" xmlns="http://www.w3.org/2000/svg" width="39.829" height="40.011" viewBox="0 0 39.829 40.011">
  <g id="Group_36530" data-name="Group 36530" transform="translate(0 0)">
    <g id="Group_36529" data-name="Group 36529">
      <path id="Path_25788" data-name="Path 25788" d="M72.333,73.577H57.605a.586.586,0,0,0,0,1.172H72.333a.586.586,0,1,0,0-1.172Z" transform="translate(-52.654 -67.827)"/>
      <path id="Path_25789" data-name="Path 25789" d="M72.919,125.69a.586.586,0,0,0-.586-.586H57.605a.586.586,0,0,0,0,1.172H72.333A.586.586,0,0,0,72.919,125.69Z" transform="translate(-52.654 -115.328)"/>
      <path id="Path_25790" data-name="Path 25790" d="M57.605,176.631a.586.586,0,1,0,0,1.172h7.364a.586.586,0,1,0,0-1.172Z" transform="translate(-52.654 -162.828)"/>
      <path id="Path_25791" data-name="Path 25791" d="M12.15,38.838H3.608a1.273,1.273,0,0,1-1.272-1.272V2.444A1.273,1.273,0,0,1,3.608,1.172c21.82.006,20.494-.014,20.69.015v4.9a2.068,2.068,0,0,0,2.066,2.066h4.9a1.287,1.287,0,0,1,.015.183v3.4a.586.586,0,1,0,1.172,0v-3.4a2.425,2.425,0,0,0-.569-1.567l0,0c-.045-.054-5.964-6-6.2-6.2h0A2.425,2.425,0,0,0,24.114,0H3.608A2.447,2.447,0,0,0,1.164,2.444V37.567a2.447,2.447,0,0,0,2.444,2.444H12.15a.586.586,0,0,0,0-1.172ZM25.47,6.088V2l4.98,4.98H26.363A.9.9,0,0,1,25.47,6.088Z" transform="translate(-1.164 0)"/>
      <path id="Path_25792" data-name="Path 25792" d="M184.622,170.367c-.006-.012-.013-.024-.021-.036a2.575,2.575,0,0,0-2.2-1.244h-2.054a9.27,9.27,0,0,0-18.366,0h-2.054a2.58,2.58,0,0,0-2.575,2.575v14.268a2.579,2.579,0,0,0,2.575,2.575H182.4a2.578,2.578,0,0,0,2.575-2.575V171.661A2.557,2.557,0,0,0,184.622,170.367Zm-.822,15.563a1.392,1.392,0,0,1-.131.588l-9.283-8.284,9.409-6.658C183.8,171.685,183.8,180.343,183.8,185.929Zm-1.4-15.67a1.393,1.393,0,0,1,.835.278l-3.117,2.206a9.312,9.312,0,0,0,.315-2.392c0-.031,0-.061,0-.092H182.4Zm-11.237-8.006a8.106,8.106,0,0,1,8.1,8.1,8,8,0,0,1-.84,3.593l-4.929,3.488-.42-.375a2.858,2.858,0,0,0-1.639-.715.586.586,0,0,0,.316-.52v-.632c2.482-.5,3.154-4.119.48-5.065-.158-.056-.319-.114-.48-.175v-2.608a1.678,1.678,0,0,1,.649.318.586.586,0,0,0,.791-.866,2.925,2.925,0,0,0-1.439-.648v-.522a.586.586,0,1,0-1.172,0v.566c-.078.018-.157.037-.237.062a2.282,2.282,0,0,0-.916,3.822,5.416,5.416,0,0,0,1.153.662v3.326a2.252,2.252,0,0,1-1.189-.454.586.586,0,0,0-.642.981,3.4,3.4,0,0,0,1.831.648v.584a.586.586,0,0,0,.316.52,2.857,2.857,0,0,0-1.639.715l-.42.375-4.929-3.488a8,8,0,0,1-.84-3.593A8.107,8.107,0,0,1,171.161,162.253Zm.586,8.945.089.032a1.451,1.451,0,0,1-.089,2.738Zm-1.172-1.768a3.247,3.247,0,0,1-.429-.278,1.125,1.125,0,0,1,.429-1.74Zm-11.923,17.086a1.392,1.392,0,0,1-.131-.588c0-5.587,0-14.244,0-14.355l9.41,6.658Zm3.24-16.258c0,.031,0,.061,0,.092a9.311,9.311,0,0,0,.315,2.392l-3.117-2.206a1.393,1.393,0,0,1,.835-.278h1.969Zm-1.969,17.073a1.4,1.4,0,0,1-.368-.051l10.477-9.349a1.693,1.693,0,0,1,2.256,0l10.477,9.349a1.4,1.4,0,0,1-.368.051Z" transform="translate(-145.144 -148.493)"/>
    </g>
  </g>
</svg>
