<svg xmlns="http://www.w3.org/2000/svg" width="39.229" height="39.233" viewBox="0 0 39.229 39.233">
  <g id="solution" transform="translate(0)">
    <g id="Group_36472" data-name="Group 36472" transform="translate(17 13.08)">
      <g id="Group_36471" data-name="Group 36471">
        <path id="Path_25731" data-name="Path 25731" d="M227.641,160.049h-8.5a.654.654,0,0,0-.654.654v2.615a.654.654,0,0,0,.654.654H221.1a1.308,1.308,0,0,1,0,2.615h-1.961a.654.654,0,0,0-.654.654v3.269h-9.807a.654.654,0,0,0-.654.654v8.5a2.615,2.615,0,0,0,2.615,2.615h17a2.615,2.615,0,0,0,2.615-2.615v-17A2.615,2.615,0,0,0,227.641,160.049Zm-9.153,20.922h-7.846a1.308,1.308,0,0,1-1.308-1.308v-7.846h9.153v1.308H217.18a2.615,2.615,0,0,0,0,5.23h1.308Zm10.461-1.308a1.308,1.308,0,0,1-1.308,1.308H219.8V177.7a.654.654,0,0,0-.654-.654H217.18a1.308,1.308,0,0,1,0-2.615h1.961a.654.654,0,0,0,.654-.654v-1.961h1.961v1.308a2.615,2.615,0,0,0,5.23,0v-1.308h1.961Zm0-9.153h-2.615a.654.654,0,0,0-.654.654v1.961a1.308,1.308,0,0,1-2.615,0v-1.961a.654.654,0,0,0-.654-.654H219.8v-2.615H221.1a2.615,2.615,0,0,0,0-5.23H219.8v-1.308h7.846a1.308,1.308,0,0,1,1.308,1.308Z" transform="translate(-208.027 -160.049)" fill="#fff"/>
      </g>
    </g>
    <g id="Group_36474" data-name="Group 36474" transform="translate(0 0)">
      <g id="Group_36473" data-name="Group 36473">
        <path id="Path_25732" data-name="Path 25732" d="M28.79,2.619H27.482V.658A.654.654,0,0,0,26.828,0h-8.5a2.615,2.615,0,0,0-2.615,2.615V9.942l-2.7,1.308a5.328,5.328,0,0,0-1.488-1.342,5.23,5.23,0,1,0-5.027-.187,5.243,5.243,0,0,0-2.77,3.368l-2.6,8.2a9.807,9.807,0,0,0,.42,7.037A8.482,8.482,0,0,1,1.4,35.662L.091,38.287a.654.654,0,0,0,.585.946H7.868a.654.654,0,0,0,.654-.654,3.251,3.251,0,0,0-1.748-2.888l.313-.624a9.882,9.882,0,0,0,.878-6.151l-.485-2.668a.633.633,0,0,1,1.246-.227l.888,4.885a13.475,13.475,0,0,1,.216,2.4v5.267a.654.654,0,0,0,.654.654h7.192a.654.654,0,0,0,.654-.654,3.271,3.271,0,0,0-.022-.381A2.9,2.9,0,0,0,16.7,35.923a3.168,3.168,0,0,0-2.358-.209l.435-2.176a14.791,14.791,0,0,0,.286-2.893V24.793L14.3,16.038l4.537-2.165a2.443,2.443,0,0,0,1.447-2.1h6.549a.654.654,0,0,0,.654-.654V7.85H28.79a2.615,2.615,0,1,0,0-5.23ZM5.252,5.235A3.923,3.923,0,1,1,9.175,9.158,3.923,3.923,0,0,1,5.252,5.235Zm9.085,31.894A1.861,1.861,0,0,1,16.1,37.09a1.642,1.642,0,0,1,.8.835H11.137V33.312a14.759,14.759,0,0,0-.238-2.639l-.888-4.885a1.94,1.94,0,0,0-3.824.661l.006.033.486,2.668a8.57,8.57,0,0,1-.762,5.332l-.635,1.269a.654.654,0,0,0,.429.932A1.954,1.954,0,0,1,7.1,37.925H1.734l.838-1.679a9.786,9.786,0,0,0,.157-8.459,8.5,8.5,0,0,1-.365-6.1l2.615-8.238a4.017,4.017,0,0,1,4.63-2.911A3.858,3.858,0,0,1,11.8,11.83L7.933,13.7a2.426,2.426,0,1,0,2.1,4.375l3.008-1.434.713,8.211v5.8a13.531,13.531,0,0,1-.262,2.636l-.7,3.482a.654.654,0,0,0,.966.7ZM18.3,12.68l-.02.008-8.81,4.2A1.119,1.119,0,0,1,8.5,14.874l8.881-4.289a1.143,1.143,0,0,1,1.6,1.047A1.144,1.144,0,0,1,18.3,12.68ZM28.79,6.542H26.828a.654.654,0,0,0-.654.654v3.269H20a2.443,2.443,0,0,0-2.974-1.136V2.619a1.308,1.308,0,0,1,1.308-1.308h7.846V3.273a.654.654,0,0,0,.654.654H28.79a1.308,1.308,0,1,1,0,2.615Z" transform="translate(-0.022 0)" fill="#fff"/>
      </g>
    </g>
    <g id="Group_36476" data-name="Group 36476" transform="translate(17.191 15.695)">
      <g id="Group_36475" data-name="Group 36475">
        <path id="Path_25733" data-name="Path 25733" d="M219.524,193.548l-2.153,2.153v-3.652h-1.308v4.96l-.654.654-.654-.654v-2.345h-1.308V195.7l-2.153-2.153-.924.924,4.577,4.577a.654.654,0,0,0,.924,0l4.577-4.577Z" transform="translate(-210.371 -192.049)" fill="#fff"/>
      </g>
    </g>
    <g id="Group_36478" data-name="Group 36478" transform="translate(20.269 15.695)">
      <g id="Group_36477" data-name="Group 36477">
        <rect id="Rectangle_11495" data-name="Rectangle 11495" width="1.308" height="1.308" fill="#fff"/>
      </g>
    </g>
    <g id="Group_36480" data-name="Group 36480" transform="translate(20.269 13.08)">
      <g id="Group_36479" data-name="Group 36479">
        <rect id="Rectangle_11496" data-name="Rectangle 11496" width="1.308" height="1.308" fill="#fff"/>
      </g>
    </g>
    <g id="Group_36482" data-name="Group 36482" transform="translate(22.884 13.08)">
      <g id="Group_36481" data-name="Group 36481">
        <rect id="Rectangle_11497" data-name="Rectangle 11497" width="1.308" height="1.308" fill="#fff"/>
      </g>
    </g>
  </g>
</svg>
