<svg id="stock-market" xmlns="http://www.w3.org/2000/svg" width="40.014" height="40.014" viewBox="0 0 40.014 40.014">
  <path id="Path_25793" data-name="Path 25793" d="M47.227,18.035V16.745a1.936,1.936,0,0,0,0-3.872H45.936a.645.645,0,1,1,0-1.291h1.936v.645h1.291V10.291H47.227V9H45.936v1.291a1.936,1.936,0,0,0,0,3.872h1.291a.645.645,0,0,1,0,1.291H45.291v-.645H44v1.936h1.936v1.291Z" transform="translate(-16.249 -3.837)"/>
  <path id="Path_25794" data-name="Path 25794" d="M51.2,12.1a7.1,7.1,0,1,0-7.1,7.1A7.108,7.108,0,0,0,51.2,12.1Zm-12.908,0A5.808,5.808,0,1,1,44.1,17.908,5.815,5.815,0,0,1,38.291,12.1Z" transform="translate(-13.766 -2.418)"/>
  <path id="Path_25795" data-name="Path 25795" d="M41.014,10.681A9.681,9.681,0,1,0,27.852,19.7l-1.3,1.3H21.359L16.842,26.17H9.108l-7.936,8.6.948.876,7.553-8.182h7.756L21.946,22.3h5.137l2.168-2.168a9.635,9.635,0,0,0,1.828.219l-3.24,3.24H21.975L18.1,28.751H10.388L1,39.48v1.533H38.432V17.24a9.635,9.635,0,0,0,2.582-6.56Zm-18.071,0a8.39,8.39,0,1,1,8.39,8.39A8.4,8.4,0,0,1,22.943,10.681Zm10.326,9.486V39.723H30.688V22.565L33.053,20.2C33.125,20.187,33.2,20.181,33.269,20.167Zm-4.9,4.713L29.4,23.856V39.723H26.815V24.879ZM10.035,39.723H7.454V34.065l2.582-2.95Zm1.291-9.681h2.582v9.681H11.326Zm3.872,0H17.78v9.681H15.2Zm3.872-.43,2.582-3.442V39.723H19.071Zm3.872-4.733h2.582V39.723H22.943ZM6.163,35.54v4.183H2.5Zm28.4,4.183V19.8a9.662,9.662,0,0,0,2.582-1.39V39.723Z" transform="translate(-1 -1)"/>
  <path id="Path_25796" data-name="Path 25796" d="M6.291,30.908H7.582V28.326H8.872V20.582H7.582V18H6.291v2.582H5v7.745H6.291Zm0-9.035H7.582v5.163H6.291Z" transform="translate(-2.418 -7.029)"/>
  <path id="Path_25797" data-name="Path 25797" d="M14.291,26.617h1.291V24.035h1.291V17.582H15.582V15H14.291v2.582H13v6.454h1.291Zm0-7.745h1.291v3.872H14.291Z" transform="translate(-5.255 -5.965)"/>
  <path id="Path_25798" data-name="Path 25798" d="M22.291,20.326h1.291V17.745h1.291V12.582H23.582V10H22.291v2.582H21v5.163h1.291Zm0-6.454h1.291v2.582H22.291Z" transform="translate(-8.092 -4.192)"/>
</svg>
