<svg id="teamwork" xmlns="http://www.w3.org/2000/svg" width="46.259" height="45.521" viewBox="0 0 46.259 45.521">
  <g id="Group_36484" data-name="Group 36484" transform="translate(20.793 30.087)">
    <g id="Group_36483" data-name="Group 36483">
      <path id="Path_25734" data-name="Path 25734" d="M216.322,315.73a.772.772,0,1,0,0,1.543,2.315,2.315,0,0,1,2.315,2.315.772.772,0,0,0,1.543,0A3.863,3.863,0,0,0,216.322,315.73Z" transform="translate(-215.55 -315.73)" fill="#fff"/>
    </g>
  </g>
  <g id="Group_36486" data-name="Group 36486" transform="translate(0 0)">
    <g id="Group_36485" data-name="Group 36485">
      <path id="Path_25735" data-name="Path 25735" d="M46.033,13.318h0L36.756,4.04a.794.794,0,0,0-1.091,0L31.3,8.406a.772.772,0,0,0,0,1.091l.546.546-.373.374a8.8,8.8,0,0,0-4.63,2.445l-2.37,2.375-1.328-1.328A8.171,8.171,0,0,0,17.328,11.5h-2.05l-.865-.865.546-.546a.772.772,0,0,0,0-1.091L10.593,4.629a.772.772,0,0,0-1.091,0L.226,13.9A.772.772,0,0,0,.226,15L4.59,19.362a.772.772,0,0,0,1.091,0l.546-.546.374.374a8.811,8.811,0,0,0,2.445,4.63l5.573,5.57v3.749a8.165,8.165,0,0,0,2.409,5.815l1.449,1.45v1.224h-.772a.772.772,0,0,0-.772.772v6.174a.772.772,0,0,0,.772.772H30.824a.772.772,0,0,0,.772-.772V42.4a.772.772,0,0,0-.772-.772h-.772V41.1a8.812,8.812,0,0,0,1.543-5V31.43a2.265,2.265,0,0,0,1.331-.644l3.828-3.828a8.278,8.278,0,0,0,2.409-5.815v-2.05l.865-.866.546.546a.772.772,0,0,0,1.091,0l4.366-4.366A.772.772,0,0,0,46.033,13.318ZM5.682,17.179l-.546.546L1.862,14.451l8.185-8.185L13.321,9.54l-.545.545Zm4.455,5.546a7.278,7.278,0,0,1-2.055-4.031.772.772,0,0,0-.217-.424l-.546-.546,3-3,3-3,1.091,1.091a.772.772,0,0,0,.546.226h2.37A6.637,6.637,0,0,1,22.052,15l1.328,1.329-1.092,1.091L20.96,16.088a.773.773,0,1,0-1.094,1.091l1.328,1.328-3,3a2.282,2.282,0,0,0-.671,1.634,2.328,2.328,0,0,0,1.407,2.122,2.247,2.247,0,0,0-.265,1.621l-2.37-2.37a.772.772,0,0,0-1.11,1.072l.019.019,3.021,3.021a.752.752,0,0,1,.22.54.779.779,0,0,1-.776.772.663.663,0,0,1-.536-.219ZM30.053,47.8H18.477v-4.63H30.053Zm0-11.7a7.278,7.278,0,0,1-1.4,4.3.772.772,0,0,0-.147.453v.772H20.021V40.084a.772.772,0,0,0-.226-.546l-1.675-1.676a6.637,6.637,0,0,1-1.957-4.724V30.912a2.3,2.3,0,0,0,1.5.572h.012a2.327,2.327,0,0,0,2.315-2.315,2.277,2.277,0,0,0-.124-.716,2.284,2.284,0,0,0,.945.262,2.315,2.315,0,0,0,2.18,2.186,2.322,2.322,0,0,0,2.3,2.195H25.3a2.278,2.278,0,0,0,1.625-.672l2.29-2.294a2.332,2.332,0,0,0,.837.956V36.1Zm7.794-17.871a.772.772,0,0,0-.226.546v2.37a6.727,6.727,0,0,1-1.957,4.724L31.835,29.7a.749.749,0,0,1-.533.22.779.779,0,0,1-.772-.772.752.752,0,0,1,.219-.54l0,0,3.825-3.824a.772.772,0,0,0-1.091-1.091L30.76,26.412l-1.1,1.1L25.84,31.332a.75.75,0,0,1-.534.22.78.78,0,0,1-.772-.772.752.752,0,0,1,.221-.54l4.92-4.92a.772.772,0,0,0-1.091-1.091l-4.92,4.92a.75.75,0,0,1-.533.22.781.781,0,0,1-.772-.772.749.749,0,0,1,.22-.54l4.92-4.92a.772.772,0,1,0-1.092-1.091l-4.939,4.92a.745.745,0,0,1-.532.219h0a.779.779,0,0,1-.772-.772.758.758,0,0,1,.22-.536l4.92-4.92a.772.772,0,1,0-1.093-1.091L20.881,23.19l-.5.5a.752.752,0,0,1-.533.22.779.779,0,0,1-.772-.772.748.748,0,0,1,.219-.54l8.651-8.65a7.28,7.28,0,0,1,4.03-2.056.772.772,0,0,0,.424-.217l.546-.546,6,6Zm3.274-1.091L32.936,8.951,36.21,5.677,44.4,13.863Z" transform="translate(0 -3.823)" fill="#fff"/>
    </g>
  </g>
</svg>
