<svg id="transparency" xmlns="http://www.w3.org/2000/svg" width="46.462" height="46.474" viewBox="0 0 46.462 46.474">
  <path id="Path_25736" data-name="Path 25736" d="M90.568,127.406a12.338,12.338,0,0,0-17.441-.849,7.339,7.339,0,0,0-.772.772l-.309.54.386.463.077.077a12.307,12.307,0,0,0,17.363.772,7.27,7.27,0,0,0,.772-.772l.386-.54Zm-10.649.463a1.543,1.543,0,1,1,1.543,1.543A1.548,1.548,0,0,1,79.918,127.87Zm.54-2.933a3.127,3.127,0,0,0-2.007,3.858,3.067,3.067,0,0,0,2.007,2.006,10.907,10.907,0,0,1-6.482-2.932,11.117,11.117,0,0,1,6.482-2.933Zm2.007,5.865a3.126,3.126,0,0,0,2.006-3.858,3.068,3.068,0,0,0-2.006-2.007,10.908,10.908,0,0,1,6.482,2.933A11.117,11.117,0,0,1,82.465,130.8Zm0,0" transform="translate(-65.135 -111.453)" fill="#fff"/>
  <path id="Path_25737" data-name="Path 25737" d="M46.767,34.188A13.119,13.119,0,1,0,59.886,47.306,13.108,13.108,0,0,0,46.767,34.188Zm0,24.694A11.575,11.575,0,1,1,58.342,47.306,11.56,11.56,0,0,1,46.767,58.882Zm0,0" transform="translate(-30.44 -30.89)" fill="#fff"/>
  <path id="Path_25738" data-name="Path 25738" d="M326,71.513V46.046a3.821,3.821,0,0,0-3.858-3.858h-8.489v1.543h8.489a2.274,2.274,0,0,1,2.315,2.315V71.513Zm0,0" transform="translate(-283.431 -38.118)" fill="#fff"/>
  <path id="Path_25739" data-name="Path 25739" d="M41.648,322.188V329.9a3.821,3.821,0,0,0,3.858,3.858H72.516V332.22H45.507a2.274,2.274,0,0,1-2.315-2.315v-7.717Zm0,0" transform="translate(-37.669 -291.109)" fill="#fff"/>
  <path id="Path_25740" data-name="Path 25740" d="M337.648,82.188h6.945v1.543h-6.945Zm0,0" transform="translate(-305.116 -74.259)" fill="#fff"/>
  <path id="Path_25741" data-name="Path 25741" d="M353.648,122.188h5.4v1.543h-5.4Zm0,0" transform="translate(-319.572 -110.401)" fill="#fff"/>
  <path id="Path_25742" data-name="Path 25742" d="M353.648,162.188h5.4v1.543h-5.4Zm0,0" transform="translate(-319.572 -146.543)" fill="#fff"/>
  <path id="Path_25743" data-name="Path 25743" d="M353.648,202.188h5.4v1.543h-5.4Zm0,0" transform="translate(-319.572 -182.684)" fill="#fff"/>
  <path id="Path_25744" data-name="Path 25744" d="M353.648,242.188h5.4v1.543h-5.4Zm0,0" transform="translate(-319.572 -218.826)" fill="#fff"/>
  <path id="Path_25745" data-name="Path 25745" d="M361.648,282.188h4.63v1.543h-4.63Zm0,0" transform="translate(-326.801 -254.967)" fill="#fff"/>
  <path id="Path_25746" data-name="Path 25746" d="M73.648,354.188H94.484v1.543H73.648Zm0,0" transform="translate(-66.582 -320.022)" fill="#fff"/>
  <path id="Path_25747" data-name="Path 25747" d="M73.648,386.188H97.571v1.543H73.648Zm0,0" transform="translate(-66.582 -348.935)" fill="#fff"/>
  <path id="Path_25748" data-name="Path 25748" d="M113.648,234.188h10.8v1.543h-10.8Zm0,0" transform="translate(-102.723 -211.598)" fill="#fff"/>
  <path id="Path_25749" data-name="Path 25749" d="M113.648,90.188h10.8v1.543h-10.8Zm0,0" transform="translate(-102.723 -81.488)" fill="#fff"/>
  <path id="Path_25750" data-name="Path 25750" d="M37.788,32.545a2.221,2.221,0,0,0-1.621-.694h-.54L30.071,25.6a16.452,16.452,0,1,0-3.318,3.473l5.4,6.1v.618a2.1,2.1,0,0,0,.694,1.62l8.026,8.026a3.492,3.492,0,0,0,4.939-4.939ZM2.058,16.417A14.662,14.662,0,1,1,16.72,31.079,14.656,14.656,0,0,1,2.058,16.417ZM27.91,28.146c.386-.386.849-.849,1.158-1.234l5.093,5.71L32.926,33.78ZM43.344,44.97a2.219,2.219,0,0,1-1.389-.54L33.929,36.4a.7.7,0,0,1-.231-.54v-.617l1.852-1.852h.617a.7.7,0,0,1,.54.231l8.026,8.026a1.956,1.956,0,0,1,0,2.778,2.4,2.4,0,0,1-1.389.54Zm0,0" transform="translate(-0.394 0)" fill="#fff"/>
</svg>
