<svg xmlns="http://www.w3.org/2000/svg" width="37.659" height="47.949" viewBox="0 0 37.659 47.949">
  <g id="traveller" transform="translate(-54.937 -0.001)">
    <path id="Path_25799" data-name="Path 25799" d="M317.458,269.014h2.523a.7.7,0,0,0,0-1.4h-2.523a.7.7,0,0,0,0,1.4Z" transform="translate(-237.3 -242.547)"/>
    <path id="Path_25800" data-name="Path 25800" d="M267.087,45.923l-8.9,5.222a.79.79,0,0,1-.647.069l-1.011-.335a3.135,3.135,0,0,0-2.6.289,1.593,1.593,0,0,0-.052,2.685l1.184.792a.7.7,0,0,0,.9,1.045l.361-.212a4.286,4.286,0,0,0,4.277-.02l1.626-.954.107,2.376a1.178,1.178,0,0,0,1.776.964l1.676-.983a1.78,1.78,0,0,0,.827-1.094l1.18-4.53,3.66-2.147a1.639,1.639,0,0,0-.16-2.908l-.98-.439a3.533,3.533,0,0,0-3.225.177Zm-1.835,9.492a.385.385,0,0,1-.178.236l-1.354.795L263.6,53.7l2.483-1.457Zm5.489-7.535-10.852,6.367a2.869,2.869,0,0,1-2.068.32.7.7,0,0,0-.865-1.089l-.594.348-1.705-1.141a.188.188,0,0,1-.006-.314,1.731,1.731,0,0,1,1.436-.16l1.011.335a2.195,2.195,0,0,0,1.8-.191l8.9-5.222a2.126,2.126,0,0,1,1.941-.106l.98.439A.233.233,0,0,1,270.741,47.881Z" transform="translate(-179.665 -41.183)"/>
    <path id="Path_25801" data-name="Path 25801" d="M352.451,98.692a.7.7,0,1,0-.254.963.7.7,0,0,0,.254-.963Z" transform="translate(-268.466 -89.132)"/>
    <path id="Path_25802" data-name="Path 25802" d="M332.414,110.447a.7.7,0,1,0-.254.963.7.7,0,0,0,.254-.963Z" transform="translate(-250.306 -99.786)"/>
    <path id="Path_25803" data-name="Path 25803" d="M372.487,86.936a.7.7,0,1,0-.254.963.7.7,0,0,0,.254-.963Z" transform="translate(-286.626 -78.478)"/>
    <path id="Path_25804" data-name="Path 25804" d="M392.516,75.168a.7.7,0,1,0-.233.968.7.7,0,0,0,.233-.968Z" transform="translate(-304.786 -67.823)"/>
    <path id="Path_25805" data-name="Path 25805" d="M89.133,34.686a1.824,1.824,0,0,0,.286-.977V30.615a1.922,1.922,0,0,0-1.953-1.886H87V24.085a1.817,1.817,0,0,0-.5-1.249v-2.93a1.643,1.643,0,0,0-1.641-1.641h-.871a1.643,1.643,0,0,0-1.641,1.641v.4a2.385,2.385,0,0,0-1.981,0v-.4a1.643,1.643,0,0,0-1.641-1.641h-.871a1.643,1.643,0,0,0-1.641,1.641v.415l-3-5.96a2.173,2.173,0,0,0-1.954-1.211H69.178a.315.315,0,0,1-.315-.315v-.824a4.141,4.141,0,0,0,1.911-3.488V8.378a5.189,5.189,0,1,0-8.185,0v.146A4.152,4.152,0,0,0,64.5,12.014v.82a.315.315,0,0,1-.315.315H62.108a2.17,2.17,0,0,0-1.952,1.207L56.808,21a2.189,2.189,0,0,0-.179.513l-1.641,6.662-.006.025a2.181,2.181,0,0,0,4.269.9l1.583-6.4,1.134-2.244h0l.543-1.075V26.2a20.789,20.789,0,0,1-.179,2.688l0,.02-.895,7.046c0,.036-.009.071-.012.108L60.8,43.445l-1.677.676a2.031,2.031,0,0,0-1.278,1.892V46.5a1.441,1.441,0,0,0,1.439,1.439h3.395a2.189,2.189,0,0,0,2.288-1.994l.168-2.008.626-7.461.82-6.488a.119.119,0,0,1,.078-.1.093.093,0,0,1,.108.073l.824,6.519.794,9.469a2.194,2.194,0,0,0,2.172,2s-.128-.005,3.636-.005a1.435,1.435,0,0,0,.289-.03,1.887,1.887,0,0,0,.359.035H87.863a1.888,1.888,0,0,0,1.886-1.886V36.076a1.877,1.877,0,0,0-.615-1.39Zm-26-30.046a1.7,1.7,0,0,0-.224.241,3.784,3.784,0,1,1,7.472,1.1,1.7,1.7,0,0,0-1.674-.58,2.489,2.489,0,0,1-2.518-.917,1.711,1.711,0,0,0-2.2-.459,5.415,5.415,0,0,0-.854.612Zm.859,3.883V5.846a.2.2,0,0,1,.066-.15,4,4,0,0,1,.632-.453.309.309,0,0,1,.385.1A3.887,3.887,0,0,0,69.01,6.776a.3.3,0,0,1,.36.3c0,.516,0,.919,0,1.445a2.707,2.707,0,0,1-2.654,2.72h0A2.7,2.7,0,0,1,63.993,8.523Zm4.091,5.637a2.107,2.107,0,0,1-2.8,0,1.717,1.717,0,0,0,.625-1.325v-.261a4.208,4.208,0,0,0,1.554,0v.26a1.716,1.716,0,0,0,.625,1.325ZM59.545,22.14a.7.7,0,0,0-.055.148l-1.6,6.487-.006.026a.777.777,0,0,1-1.523-.3L58,21.837,58,21.812a.779.779,0,0,1,.063-.185l.892-1.77,1.424.628Zm4.028,23.692a.781.781,0,0,1-.765.712c-.114-.008.279-.005-3.518-.005a.035.035,0,0,1-.035-.035v-.491a.633.633,0,0,1,.4-.589l2.078-.837h1.947ZM69,36.349c0-.01,0-.02,0-.029l-.827-6.539a1.5,1.5,0,0,0-1.7-1.282,1.525,1.525,0,0,0-1.272,1.313l-.823,6.508c0,.01,0,.02,0,.029L63.8,43.181H62.236l.587-7c0-.009,0-.029.005-.045l.9-7.048c.068-.5.126-1.1.158-1.668h5.6c.028.5.083,1.1.157,1.661v0l.9,7.056c0,.012,0,.025,0,.039l.587,7H69.569Zm1.634,10.193a.78.78,0,0,1-.838-.709l-.1-1.247h2.069l1.207.486v.992a1.991,1.991,0,0,0,.061.476c-.046,0-2.348,0-2.394,0ZM73.42,30.615v3.094a1.823,1.823,0,0,0,.24.9,1.882,1.882,0,0,0-.7,1.463v7.482l-.407-.164-.615-7.327c0-.03-.007-.072-.011-.1l-.9-7.056,0-.016a20.715,20.715,0,0,1-.179-2.687V24.069a.7.7,0,0,0-1.4,0v1.948H63.916V16.926a.819.819,0,0,0-1.551-.369l-1.351,2.673L59.59,18.6l1.823-3.617c0-.009.01-.017.015-.026a.771.771,0,0,1,.68-.405h1.664a3.513,3.513,0,0,0,5.82,0h1.664a.774.774,0,0,1,.7.435L73.774,18.6l-1.426.629L71,16.562a.819.819,0,0,0-1.553.365v3.865a.7.7,0,0,0,1.4,0V19.383l.543,1.075h0L72.529,22.7l1.583,6.4c0,.021.011.041.017.062a1.859,1.859,0,0,0-.708,1.452Zm2.225,15.93h-.8a.491.491,0,0,1-.481-.481V36.076a.481.481,0,0,1,.481-.481h.8ZM75.373,34.19a.525.525,0,0,1-.548-.481V30.615a.526.526,0,0,1,.548-.481h.342v3.575a1.862,1.862,0,0,0,.051.481h-.393Zm.342-10.046v4.585h-.248l-1.593-6.44a.7.7,0,0,0-.055-.148l-.836-1.654,1.424-.628.89,1.767a.807.807,0,0,1,.071.213l.425,1.725a1.871,1.871,0,0,0-.077.582Zm8.036-4.239a.239.239,0,0,1,.236-.236h.871a.239.239,0,0,1,.236.236v2.353H83.751V19.905ZM82.32,22.258H80.391A.992.992,0,0,1,82.32,22.258Zm-4.7-2.353a.239.239,0,0,1,.236-.236h.871a.239.239,0,0,1,.236.236v2.353H77.618V19.905Zm.324,3.758H84.82a.771.771,0,0,1,.771.771v4.359a1.874,1.874,0,0,0-.481-.065H83.024a.722.722,0,0,0-.731.681.7.7,0,0,0,.7.724H85.11a.482.482,0,0,1,.481.481v.528H77.12v-.528a.482.482,0,0,1,.481-.481h2.086a.722.722,0,0,0,.731-.681.7.7,0,0,0-.7-.724H77.6a1.874,1.874,0,0,0-.481.065v-4.3a.821.821,0,0,1,.821-.832Zm7.65,8.884v1.162a.487.487,0,0,1-.481.481H77.6a.487.487,0,0,1-.481-.481V32.547Zm-7.515,14H77.05V35.595h1.026Zm5.155,0h-3.75V35.595h3.75Zm2.431,0H84.636V35.595h1.026ZM87,33.709V30.134h.47a.525.525,0,0,1,.548.481v3.094a.525.525,0,0,1-.548.481h-.521A1.865,1.865,0,0,0,87,33.709Zm1.349,12.354a.487.487,0,0,1-.481.481h-.8V35.595h.8a.482.482,0,0,1,.481.481Z" transform="translate(0 0)"/>
  </g>
</svg>
