<svg xmlns="http://www.w3.org/2000/svg" width="23.102" height="23.102" viewBox="0 0 23.102 23.102">
  <path id="Path_210" data-name="Path 210" d="M11.551,0A11.551,11.551,0,1,0,23.1,11.551,11.551,11.551,0,0,0,11.551,0Zm5.274,9.006q.008.17.008.34a7.492,7.492,0,0,1-7.544,7.548h0A7.5,7.5,0,0,1,5.225,15.7a5.393,5.393,0,0,0,.632.037A5.32,5.32,0,0,0,9.15,14.6,2.655,2.655,0,0,1,6.673,12.76a2.643,2.643,0,0,0,1.2-.046,2.652,2.652,0,0,1-2.127-2.6v-.034a2.632,2.632,0,0,0,1.2.332,2.654,2.654,0,0,1-.82-3.537,7.527,7.527,0,0,0,5.465,2.77,2.653,2.653,0,0,1,4.518-2.418,5.318,5.318,0,0,0,1.683-.643,2.661,2.661,0,0,1-1.166,1.466,5.288,5.288,0,0,0,1.522-.418A5.388,5.388,0,0,1,16.825,9.006Zm0,0" transform="translate(0)" fill="#192445"/>
</svg>
