<svg id="XMLID_1258_" xmlns="http://www.w3.org/2000/svg" width="40.007" height="40.014" viewBox="0 0 40.007 40.014">
  <g id="XMLID_1850_" transform="translate(0)">
    <path id="XMLID_1911_" d="M39.821,16.829a.782.782,0,0,0-.707-.213l-6.735,1.355a.781.781,0,0,0-.4,1.319l.911.911-3.576,3.576-2.768-2.768a.781.781,0,0,0-1.105,0l-3.4,3.4,1.274-4.579a3.669,3.669,0,0,0-2.244-4.416l1.019-2.91c.281.025.561.037.839.037a9.716,9.716,0,0,0,6.2-2.239l.186-.155a2.177,2.177,0,0,0,.357-3.013,2.168,2.168,0,0,0-3.1-.343l-.212.176a5.381,5.381,0,0,1-1.013.664,3.241,3.241,0,0,1-3.71-.652A3.571,3.571,0,1,0,17.7,5.664a4.071,4.071,0,0,0-2.1,1.185.781.781,0,0,0-.092.094,10.6,10.6,0,0,1-5.311,3.51,2.161,2.161,0,0,0-1.287,1.019L7.3,9.87a1.8,1.8,0,0,0-2.542,0l-2.1,2.1h0l-2.1,2.1a1.8,1.8,0,0,0,0,2.542l5.775,5.775a1.8,1.8,0,0,0,2.542,0l2.17-2.17-1.029,2.7a.781.781,0,1,0,1.46.557l2.563-6.721H19.79a2.1,2.1,0,0,1,2.024,2.665l-1.776,6.38a.668.668,0,0,1-.642.488.666.666,0,0,1-.658-.771l.945-5.94a.781.781,0,0,0-.772-.9H17.059a.781.781,0,0,0-.7.429c-.046.09-4.58,9.055-6.108,12.084a.8.8,0,0,1-.826.43L9.39,31.6a.764.764,0,0,1-.612-1.03l.482-1.263A.781.781,0,1,0,7.8,28.75l-.482,1.263A2.327,2.327,0,0,0,9.18,33.148l.037,0a2.37,2.37,0,0,0,2.432-1.275c1.335-2.646,4.964-9.823,5.89-11.654H18l-.8,5.036a2.228,2.228,0,0,0,1.524,2.473l-8.705,8.705a.781.781,0,0,0,0,1.105l2.241,2.241a.781.781,0,0,0,1.105,0l4.309-4.309a.782.782,0,1,0-1.105-1.105l-3.756,3.756-1.136-1.136L26,22.666l2.768,2.768a.781.781,0,0,0,1.105,0l4.681-4.681a.782.782,0,0,0,0-1.105l-.433-.433,4.153-.836-.836,4.153-.643-.643a.782.782,0,0,0-1.105,0l-6.37,6.37-2.768-2.768a.782.782,0,0,0-1.105,0L20.984,29.95a.782.782,0,0,0,1.105,1.105L26,27.15l2.768,2.768a.782.782,0,0,0,1.105,0l6.37-6.37L37.36,24.67a.782.782,0,0,0,1.319-.4l1.355-6.735A.782.782,0,0,0,39.821,16.829ZM20.581,1.563a2,2,0,1,1-2,2A2.007,2.007,0,0,1,20.581,1.563ZM12.848,15.414l-.951-.951q.678-.221,1.33-.5ZM10.211,12.7a.606.606,0,0,1,.414-.749,12.19,12.19,0,0,0,3.562-1.688l-.441,1.7a13.477,13.477,0,0,1-2.786,1.154l-.056.013a.6.6,0,0,1-.41-.07l-.229-.229A.6.6,0,0,1,10.211,12.7ZM5.867,10.975a.235.235,0,0,1,.332,0l2.849,2.849a2.148,2.148,0,0,0,.467.467l2.46,2.46a.235.235,0,0,1,0,.331L10.43,18.625,8.714,16.909l.327-.327a.782.782,0,0,0,0-1.105L7.281,13.717a.782.782,0,0,0-1.105,0l-.327.327L4.323,12.518Zm1.07,5.5a.293.293,0,0,1-.415,0h0l-.239-.239a.293.293,0,0,1,0-.415l.446-.446.654.654Zm.845,4.8a.234.234,0,0,1-.331,0L1.675,15.5a.234.234,0,0,1,0-.331l1.543-1.544,1.6,1.6a1.858,1.858,0,0,0,.36,2.119l.239.239h0a1.858,1.858,0,0,0,2.119.36l1.79,1.79Zm11.162-6.093h-4.42l1.605-6.171a2.505,2.505,0,0,1,2.424-1.874,2.477,2.477,0,0,1,1.834.8,4.818,4.818,0,0,0,5.661,1.089,6.938,6.938,0,0,0,1.308-.858l.212-.176a.6.6,0,0,1,.866.1.627.627,0,0,1-.118.855l-.186.155a8.106,8.106,0,0,1-6.445,1.781.781.781,0,0,0-.858.514L19.5,15.181Z" transform="translate(-0.043)"/>
    <path id="XMLID_1920_" d="M237.777,408.8a.782.782,0,1,0,.552.229A.787.787,0,0,0,237.777,408.8Z" transform="translate(-218.479 -376.854)"/>
    <path id="XMLID_1921_" d="M113.667,325.7a.781.781,0,1,0-.553-.229A.787.787,0,0,0,113.667,325.7Z" transform="translate(-104.068 -298.81)"/>
  </g>
</svg>
