<svg id="building" xmlns="http://www.w3.org/2000/svg" width="47.711" height="50.095" viewBox="0 0 47.711 50.095">
  <g id="Group_18825" data-name="Group 18825" transform="translate(22.921 5.639)">
    <g id="Group_18824" data-name="Group 18824">
      <path id="Path_25650" data-name="Path 25650" d="M250.174,57.633H247.36a.907.907,0,0,0-.906.906v3.376a.907.907,0,0,0,.906.906h2.813a.907.907,0,0,0,.906-.906V58.539A.907.907,0,0,0,250.174,57.633Zm-.525,3.757h-1.763V59.064h1.763Z" transform="translate(-246.454 -57.633)" fill="#FDA82B"/>
    </g>
  </g>
  <g id="Group_18827" data-name="Group 18827" transform="translate(28.515 5.639)">
    <g id="Group_18826" data-name="Group 18826">
      <path id="Path_25651" data-name="Path 25651" d="M307.347,57.633h-2.813a.907.907,0,0,0-.906.906v3.376a.907.907,0,0,0,.906.906h2.813a.907.907,0,0,0,.906-.906V58.539A.907.907,0,0,0,307.347,57.633Zm-.525,3.757h-1.763V59.064h1.763Z" transform="translate(-303.627 -57.633)" fill="#FDA82B"/>
    </g>
  </g>
  <g id="Group_18829" data-name="Group 18829" transform="translate(34.109 5.639)">
    <g id="Group_18828" data-name="Group 18828">
      <path id="Path_25652" data-name="Path 25652" d="M364.519,57.633h-2.813a.907.907,0,0,0-.906.906v3.376a.907.907,0,0,0,.906.906h2.813a.907.907,0,0,0,.906-.906V58.539A.907.907,0,0,0,364.519,57.633Zm-.525,3.757H362.23V59.064h1.763Z" transform="translate(-360.799 -57.633)" fill="#FDA82B"/>
    </g>
  </g>
  <g id="Group_18831" data-name="Group 18831" transform="translate(22.921 14.023)">
    <g id="Group_18830" data-name="Group 18830">
      <path id="Path_25653" data-name="Path 25653" d="M250.174,143.318H247.36a.907.907,0,0,0-.906.906V147.6a.907.907,0,0,0,.906.906h2.813a.907.907,0,0,0,.906-.906v-3.376A.907.907,0,0,0,250.174,143.318Zm-.525,3.757h-1.763V144.75h1.763Z" transform="translate(-246.454 -143.318)" fill="#FDA82B"/>
    </g>
  </g>
  <g id="Group_18833" data-name="Group 18833" transform="translate(28.515 14.023)">
    <g id="Group_18832" data-name="Group 18832">
      <path id="Path_25654" data-name="Path 25654" d="M307.347,143.318h-2.813a.907.907,0,0,0-.906.906V147.6a.907.907,0,0,0,.906.906h2.813a.907.907,0,0,0,.906-.906v-3.376A.907.907,0,0,0,307.347,143.318Zm-.525,3.757h-1.763V144.75h1.763Z" transform="translate(-303.627 -143.318)" fill="#FDA82B"/>
    </g>
  </g>
  <g id="Group_18835" data-name="Group 18835" transform="translate(34.109 14.023)">
    <g id="Group_18834" data-name="Group 18834">
      <path id="Path_25655" data-name="Path 25655" d="M364.519,143.318h-2.813a.907.907,0,0,0-.906.906V147.6a.907.907,0,0,0,.906.906h2.813a.907.907,0,0,0,.906-.906v-3.376A.907.907,0,0,0,364.519,143.318Zm-.525,3.757H362.23V144.75h1.763Z" transform="translate(-360.799 -143.318)" fill="#FDA82B"/>
    </g>
  </g>
  <g id="Group_18837" data-name="Group 18837" transform="translate(22.921 22.406)">
    <g id="Group_18836" data-name="Group 18836">
      <path id="Path_25656" data-name="Path 25656" d="M250.174,229.005H247.36a.907.907,0,0,0-.906.906v3.376a.907.907,0,0,0,.906.906h2.813a.907.907,0,0,0,.906-.906v-3.376A.907.907,0,0,0,250.174,229.005Zm-.525,3.757h-1.763v-2.326h1.763Z" transform="translate(-246.454 -229.005)" fill="#FDA82B"/>
    </g>
  </g>
  <g id="Group_18839" data-name="Group 18839" transform="translate(28.515 22.406)">
    <g id="Group_18838" data-name="Group 18838">
      <path id="Path_25657" data-name="Path 25657" d="M307.347,229.005h-2.813a.907.907,0,0,0-.906.906v3.376a.907.907,0,0,0,.906.906h2.813a.907.907,0,0,0,.906-.906v-3.376A.907.907,0,0,0,307.347,229.005Zm-.525,3.757h-1.763v-2.326h1.763Z" transform="translate(-303.627 -229.005)" fill="#FDA82B"/>
    </g>
  </g>
  <g id="Group_18841" data-name="Group 18841" transform="translate(34.109 22.406)">
    <g id="Group_18840" data-name="Group 18840">
      <path id="Path_25658" data-name="Path 25658" d="M364.519,229.005h-2.813a.907.907,0,0,0-.906.906v3.376a.907.907,0,0,0,.906.906h2.813a.907.907,0,0,0,.906-.906v-3.376A.907.907,0,0,0,364.519,229.005Zm-.525,3.757H362.23v-2.326h1.763Z" transform="translate(-360.799 -229.005)" fill="#FDA82B"/>
    </g>
  </g>
  <g id="Group_18843" data-name="Group 18843" transform="translate(34.109 30.79)">
    <g id="Group_18842" data-name="Group 18842">
      <path id="Path_25659" data-name="Path 25659" d="M364.519,314.692h-2.813a.907.907,0,0,0-.906.906v3.376a.907.907,0,0,0,.906.906h2.813a.907.907,0,0,0,.906-.906V315.6A.907.907,0,0,0,364.519,314.692Zm-.525,3.757H362.23v-2.326h1.763Z" transform="translate(-360.799 -314.692)" fill="#FDA82B"/>
    </g>
  </g>
  <g id="Group_18845" data-name="Group 18845" transform="translate(0)">
    <g id="Group_18844" data-name="Group 18844">
      <path id="Path_25660" data-name="Path 25660" d="M59.384,33.98a2.98,2.98,0,0,0-4.116-.8L53.3,34.5V3.714h.143a.941.941,0,0,0,.94-.94V.94a.941.941,0,0,0-.94-.94h-4.57a.716.716,0,1,0,0,1.431h4.078v.852H32.857V1.431H44.391a.716.716,0,1,0,0-1.431H32.365a.941.941,0,0,0-.94.94V2.775a.941.941,0,0,0,.94.94h.363v9.192H31.259V11.14a1.117,1.117,0,0,0-1.115-1.115h-5.4a1.117,1.117,0,0,0-1.115,1.115v1.766H22.6a1.16,1.16,0,0,0-1.159,1.159V30.478q-.454-.029-.911-.03H19.4v-.372a2.521,2.521,0,0,0-2.518-2.518H14.7a2.521,2.521,0,0,0-2.518,2.518V40.3a.716.716,0,0,0,1.431,0V30.077A1.088,1.088,0,0,1,14.7,28.99H16.88a1.088,1.088,0,0,1,1.087,1.087v16.1a1.088,1.088,0,0,1-1.087,1.087H14.7a1.088,1.088,0,0,1-1.087-1.087v-1.4a.716.716,0,0,0-1.431,0v1.4A2.521,2.521,0,0,0,14.7,48.7H16.88A2.521,2.521,0,0,0,19.4,46.179v-.041l9.91,3.753.059.019a4.778,4.778,0,0,0,1.3.185,4.486,4.486,0,0,0,.7-.055h0L46,47.932l.011,0A7.2,7.2,0,0,0,49.419,46.4l.026-.023,9.454-8.5A2.981,2.981,0,0,0,59.384,33.98ZM34.16,3.714H51.869V35.458l-5.955,3.985-2-.112-.051-.511a4.373,4.373,0,0,0-.247-1.077q-.063-.17-.139-.334a4.333,4.333,0,0,0-1.072-1.43h2.011a.907.907,0,0,0,.906-.906V31.7a.907.907,0,0,0-.906-.906H41.608a.907.907,0,0,0-.906.906v3.36a4.422,4.422,0,0,0-.556-.116l-.018,0-.393-.045V31.7a.907.907,0,0,0-.906-.906H36.014a.907.907,0,0,0-.906.906V34.36l-.947-.109V3.714Zm7.973,30.833V32.222H43.9v2.326ZM38.3,32.222v2.326H36.731l-.192-.022v-2.3ZM25.056,11.456h4.772v1.45H25.056Zm-2.188,2.882h9.86v2.238H24.646a.84.84,0,0,0-.839.839v2.161a.84.84,0,0,0,.839.839h8.082v2.013H24.646a.84.84,0,0,0-.839.839v2.161a.84.84,0,0,0,.839.839h8.082v2.013H24.646a.84.84,0,0,0-.839.839v1.709q-.182-.042-.366-.08l-.173-.035-.2-.038-.2-.035Zm9.86,3.669v.976h-7.49v-.976Zm0,5.852v.976h-7.49V23.86Zm-7.49,6.829v-.976h7.49v.976Zm7.49,1.431v1.967l-.22-.025a13.032,13.032,0,0,1-1.366-.27,12.855,12.855,0,0,1-2.518-.926q-.161-.079-.32-.163-.259-.137-.514-.285c-.125-.073-.251-.143-.377-.212l-.082-.044-.075-.041h5.473Zm25.217,4.689L48.5,45.3a5.767,5.767,0,0,1-2.714,1.213L31.16,48.624l-.02,0a3.21,3.21,0,0,1-1.355-.086L19.4,44.608V31.88h1.128a12.929,12.929,0,0,1,1.548.095q.156.019.311.041l.045.007q.392.058.778.14l.24.052.119.028c.1.025.207.051.311.079l.056.015a12.961,12.961,0,0,1,2.35.893l.067.034q.144.072.286.149l.087.046c.114.062.227.126.34.191l0,0q.456.267.927.5a14.308,14.308,0,0,0,4.321,1.328l.018,0,1.027.118.837.1,1.93.222.479.055h0l3.345.385a2.915,2.915,0,0,1,2.49,2.6l.025.249L29.053,37.9a.716.716,0,0,0-.139,1.425l14.221,1.386a.7.7,0,0,0,.091.012l2.847.16h.04c.014,0,.028,0,.042,0l.048,0c.021,0,.041-.007.061-.012s.032-.006.047-.011.042-.015.063-.023.027-.009.04-.015a.722.722,0,0,0,.1-.054l6.471-4.331h0l3.082-2.063a1.542,1.542,0,0,1,1.881,2.436Z" transform="translate(-12.186)" fill="#FDA82B"/>
    </g>
  </g>
</svg>
