<svg id="buy_1_" data-name="buy (1)" xmlns="http://www.w3.org/2000/svg" width="50.095" height="50.095" viewBox="0 0 50.095 50.095">
  <g id="Group_18847" data-name="Group 18847" transform="translate(12.524 24.004)">
    <g id="Group_18846" data-name="Group 18846">
      <path id="Path_25661" data-name="Path 25661" d="M155.135,245.333v22.96a1.044,1.044,0,0,1-1.044,1.044h-22.96a1.044,1.044,0,0,1-1.044-1.044v-11.48H128v11.48a3.131,3.131,0,0,0,3.131,3.131h22.96a3.131,3.131,0,0,0,3.131-3.131v-22.96Z" transform="translate(-128 -245.333)" fill="#FDA82B"/>
    </g>
  </g>
  <g id="Group_18849" data-name="Group 18849" transform="translate(3.131 28.179)">
    <g id="Group_18848" data-name="Group 18848">
      <path id="Path_25662" data-name="Path 25662" d="M48.7,288H39.306A7.315,7.315,0,0,0,32,295.306h2.087a5.224,5.224,0,0,1,5.218-5.218H48.7a2.087,2.087,0,0,1,0,4.175H39.306v2.087H48.7a4.175,4.175,0,0,0,0-8.349Z" transform="translate(-32 -288)" fill="#FDA82B"/>
    </g>
  </g>
  <g id="Group_18851" data-name="Group 18851" transform="translate(0 31.31)">
    <g id="Group_18850" data-name="Group 18850">
      <path id="Path_25663" data-name="Path 25663" d="M1.044,320A1.044,1.044,0,0,0,0,321.044v1.044H5.218V320Z" transform="translate(0 -320)" fill="#FDA82B"/>
    </g>
  </g>
  <g id="Group_18853" data-name="Group 18853" transform="translate(3.131 40.703)">
    <g id="Group_18852" data-name="Group 18852">
      <path id="Path_25664" data-name="Path 25664" d="M39.306,421.218A5.225,5.225,0,0,1,34.087,416H32a7.315,7.315,0,0,0,7.306,7.306h3.131v-2.087H39.306Z" transform="translate(-32 -416)" fill="#FDA82B"/>
    </g>
  </g>
  <g id="Group_18855" data-name="Group 18855" transform="translate(0 42.79)">
    <g id="Group_18854" data-name="Group 18854">
      <path id="Path_25665" data-name="Path 25665" d="M0,437.333v1.044a1.044,1.044,0,0,0,1.044,1.044H5.218v-2.087H0Z" transform="translate(0 -437.333)" fill="#FDA82B"/>
    </g>
  </g>
  <g id="Group_18857" data-name="Group 18857" transform="translate(28.179 2.087)">
    <g id="Group_18856" data-name="Group 18856">
      <path id="Path_25666" data-name="Path 25666" d="M299.48,21.333h-7.306a4.175,4.175,0,0,0,0,8.349h9.393V27.595h-9.393a2.087,2.087,0,0,1,0-4.175h7.306a5.224,5.224,0,0,1,5.218,5.218h2.087A7.315,7.315,0,0,0,299.48,21.333Z" transform="translate(-288 -21.333)" fill="#FDA82B"/>
    </g>
  </g>
  <g id="Group_18859" data-name="Group 18859" transform="translate(44.877 5.218)">
    <g id="Group_18858" data-name="Group 18858">
      <path id="Path_25667" data-name="Path 25667" d="M462.841,53.333h-4.175V55.42h5.218V54.377A1.044,1.044,0,0,0,462.841,53.333Z" transform="translate(-458.666 -53.333)" fill="#FDA82B"/>
    </g>
  </g>
  <g id="Group_18861" data-name="Group 18861" transform="translate(32.353 14.611)">
    <g id="Group_18860" data-name="Group 18860">
      <path id="Path_25668" data-name="Path 25668" d="M343.191,149.333a5.224,5.224,0,0,1-5.218,5.218h-7.306v2.087h7.306a7.315,7.315,0,0,0,7.306-7.306Z" transform="translate(-330.667 -149.333)" fill="#FDA82B"/>
    </g>
  </g>
  <g id="Group_18863" data-name="Group 18863" transform="translate(44.877 16.698)">
    <g id="Group_18862" data-name="Group 18862">
      <path id="Path_25669" data-name="Path 25669" d="M458.667,170.666v2.087h4.175a1.044,1.044,0,0,0,1.044-1.044v-1.044h-5.218Z" transform="translate(-458.667 -170.666)" fill="#FDA82B"/>
    </g>
  </g>
  <g id="Group_18865" data-name="Group 18865" transform="translate(12.526 0)">
    <g id="Group_18864" data-name="Group 18864">
      <path id="Path_25670" data-name="Path 25670" d="M152.6,9.106l-2.008.569a10.413,10.413,0,1,1-4.353-5.9l1.14-1.749A12.522,12.522,0,1,0,152.6,9.106Z" transform="translate(-128.023 0)" fill="#FDA82B"/>
    </g>
  </g>
  <g id="Group_18867" data-name="Group 18867" transform="translate(19.829 7.306)">
    <g id="Group_18866" data-name="Group 18866">
      <path id="Path_25671" data-name="Path 25671" d="M205.8,76.754h4.175V74.667H205.8a3.131,3.131,0,1,0,0,6.262h4.175V78.842H205.8a1.044,1.044,0,1,1,0-2.087Z" transform="translate(-202.667 -74.667)" fill="#FDA82B"/>
    </g>
  </g>
  <g id="Group_18869" data-name="Group 18869" transform="translate(19.829 11.48)">
    <g id="Group_18868" data-name="Group 18868">
      <path id="Path_25672" data-name="Path 25672" d="M209.972,117.333H205.8v2.087h4.175a1.044,1.044,0,0,1,0,2.087H205.8a1.044,1.044,0,0,1-1.044-1.044h-2.087a3.131,3.131,0,0,0,3.131,3.131h4.175a3.131,3.131,0,0,0,0-6.262Z" transform="translate(-202.666 -117.333)" fill="#FDA82B"/>
    </g>
  </g>
  <g id="Group_18871" data-name="Group 18871" transform="translate(24.004 16.699)">
    <g id="Group_18870" data-name="Group 18870">
      <rect id="Rectangle_11472" data-name="Rectangle 11472" width="2.087" height="3.131" fill="#FDA82B"/>
    </g>
  </g>
  <g id="Group_18873" data-name="Group 18873" transform="translate(24.004 5.218)">
    <g id="Group_18872" data-name="Group 18872">
      <rect id="Rectangle_11473" data-name="Rectangle 11473" width="2.087" height="3.131" fill="#FDA82B"/>
    </g>
  </g>
  <g id="Group_18875" data-name="Group 18875" transform="translate(12.524 21.917)">
    <g id="Group_18874" data-name="Group 18874">
      <path id="Path_25673" data-name="Path 25673" d="M131.131,224A3.131,3.131,0,0,0,128,227.131v4.175h2.087v-4.175a1.044,1.044,0,0,1,1.044-1.044h4.175V224Z" transform="translate(-128 -224)" fill="#FDA82B"/>
    </g>
  </g>
  <g id="Group_18877" data-name="Group 18877" transform="translate(17.742 22.96)">
    <g id="Group_18876" data-name="Group 18876">
      <rect id="Rectangle_11474" data-name="Rectangle 11474" width="2.087" height="6.262" fill="#FDA82B"/>
    </g>
  </g>
  <g id="Group_18879" data-name="Group 18879" transform="translate(22.96 24.004)">
    <g id="Group_18878" data-name="Group 18878">
      <path id="Path_25674" data-name="Path 25674" d="M236.754,245.333v7.306h-2.087v2.087H237.8a1.044,1.044,0,0,0,1.044-1.044v-8.349h-2.087Z" transform="translate(-234.667 -245.333)" fill="#FDA82B"/>
    </g>
  </g>
  <g id="Group_18881" data-name="Group 18881" transform="translate(31.31 43.834)">
    <g id="Group_18880" data-name="Group 18880">
      <rect id="Rectangle_11475" data-name="Rectangle 11475" width="6.262" height="2.087" fill="#FDA82B"/>
    </g>
  </g>
  <g id="Group_18883" data-name="Group 18883" transform="translate(31.31 39.659)">
    <g id="Group_18882" data-name="Group 18882">
      <rect id="Rectangle_11476" data-name="Rectangle 11476" width="6.262" height="2.087" fill="#FDA82B"/>
    </g>
  </g>
</svg>
