<svg id="portfolio" xmlns="http://www.w3.org/2000/svg" width="50.095" height="50.067" viewBox="0 0 50.095 50.067">
  <g id="Group_18884" data-name="Group 18884" transform="translate(0 0)">
    <path id="Path_25682" data-name="Path 25682" d="M180.666,50.854H165.423a.734.734,0,1,0,0,1.468h15.243a.734.734,0,1,0,0-1.468Z" transform="translate(-148.575 -45.893)" fill="#FDA82B"/>
    <path id="Path_25683" data-name="Path 25683" d="M180.666,94.756H165.423a.734.734,0,1,0,0,1.468h15.243a.734.734,0,1,0,0-1.468Z" transform="translate(-148.575 -85.499)" fill="#FDA82B"/>
    <path id="Path_25684" data-name="Path 25684" d="M188.3,195.342h-4.356v-2.049a4.9,4.9,0,0,0-4.9-4.9H170.8a4.9,4.9,0,0,0-4.9,4.9v2.049h-4.356a3.96,3.96,0,0,0-3.96,3.96v16.782a3.965,3.965,0,0,0,3.96,3.96H188.3a3.965,3.965,0,0,0,3.96-3.96V212.9a.734.734,0,0,0-1.468,0v3.18a2.5,2.5,0,0,1-2.493,2.493H161.546a2.5,2.5,0,0,1-2.493-2.493v-10.4a6.572,6.572,0,0,0,4.852,2.437v1.12a2.682,2.682,0,1,0,5.364,0v-1.115h11.31v1.115a2.682,2.682,0,1,0,5.364,0v-1.12a6.572,6.572,0,0,0,4.852-2.437v3.79a.734.734,0,1,0,1.468,0V199.3A3.96,3.96,0,0,0,188.3,195.342Zm-20.932-2.049a3.433,3.433,0,0,1,3.429-3.429h8.25a3.433,3.433,0,0,1,3.429,3.429v2.049H180.95v-2.049a1.9,1.9,0,0,0-1.9-1.9H170.8a1.9,1.9,0,0,0-1.9,1.9v2.049H167.37Zm3,2.049v-2.049a.434.434,0,0,1,.433-.433h8.25a.434.434,0,0,1,.433.433v2.049Zm-2.564,13.9a1.214,1.214,0,0,1-2.428,0v-2.623a1.214,1.214,0,1,1,2.428,0Zm16.673,0a1.214,1.214,0,0,1-2.428,0V207.4s0-.005,0-.008,0-.005,0-.008v-.767a1.214,1.214,0,1,1,2.428,0Zm1.468-2.59v-.034a2.682,2.682,0,1,0-5.364,0v.04h-11.31v-.04a2.682,2.682,0,0,0-5.364,0v.034a5.119,5.119,0,0,1-4.852-5.106V199.3a2.492,2.492,0,0,1,2.493-2.492H188.3A2.492,2.492,0,0,1,190.8,199.3v2.244a5.119,5.119,0,0,1-4.852,5.106Z" transform="translate(-142.167 -169.978)" fill="#FDA82B"/>
    <path id="Path_25685" data-name="Path 25685" d="M14.473,48.745H3.629a2.164,2.164,0,0,1-2.161-2.161V11.336a2.176,2.176,0,0,1,.05-.465H8.2a2.532,2.532,0,0,0,2.529-2.529V1.664a2.182,2.182,0,0,1,.465-.05H36.07a2.164,2.164,0,0,1,2.161,2.161V16.366a.734.734,0,1,0,1.468,0V3.775A3.633,3.633,0,0,0,36.07.146H11.19A3.605,3.605,0,0,0,8.624,1.209L1.063,8.77A3.605,3.605,0,0,0,0,11.336V46.584a3.633,3.633,0,0,0,3.629,3.629H14.473a.734.734,0,1,0,0-1.468ZM9.257,2.651v5.69A1.062,1.062,0,0,1,8.2,9.4H2.505Z" transform="translate(0 -0.146)" fill="#FDA82B"/>
  </g>
</svg>
