<svg id="discount" xmlns="http://www.w3.org/2000/svg" width="34.358" height="34.359" viewBox="0 0 34.358 34.359">
  <path id="Path_25703" data-name="Path 25703" d="M32.79,17.18,34.3,13.249a1.075,1.075,0,0,0-.326-1.22L30.7,9.379,30.041,5.22a1.073,1.073,0,0,0-.893-.891l-4.159-.661L22.341.4A1.075,1.075,0,0,0,21.123.071L17.19,1.58,13.258.073A1.071,1.071,0,0,0,12.04.4L9.39,3.67l-4.159.661a1.076,1.076,0,0,0-.891.891L3.679,9.381l-3.27,2.65a1.074,1.074,0,0,0-.326,1.218L1.589,17.18.082,21.112A1.071,1.071,0,0,0,.408,22.33l3.27,2.648.661,4.159a1.073,1.073,0,0,0,.891.893l4.159.661,2.65,3.268a1.068,1.068,0,0,0,1.22.326l3.93-1.505,3.932,1.507a1.074,1.074,0,0,0,1.22-.329l2.648-3.268,4.159-.661a1.076,1.076,0,0,0,.893-.893l.661-4.159,3.268-2.648a1.072,1.072,0,0,0,.326-1.218Z" transform="translate(-0.01 0)" fill="#fda82b"/>
  <g id="Group_18890" data-name="Group 18890" transform="translate(10.737 8.59)">
    <path id="Path_25704" data-name="Path 25704" d="M163.243,134.477a3.221,3.221,0,1,1,3.221-3.221A3.225,3.225,0,0,1,163.243,134.477Zm0-4.295a1.074,1.074,0,1,0,1.074,1.074A1.074,1.074,0,0,0,163.243,130.182Z" transform="translate(-160.022 -128.034)" fill="#fafafa"/>
    <path id="Path_25705" data-name="Path 25705" d="M259.243,294.477a3.221,3.221,0,1,1,3.221-3.221A3.225,3.225,0,0,1,259.243,294.477Zm0-4.295a1.074,1.074,0,1,0,1.074,1.074A1.077,1.077,0,0,0,259.243,290.182Z" transform="translate(-249.58 -277.297)" fill="#fafafa"/>
    <path id="Path_25706" data-name="Path 25706" d="M161.109,145.2a1.073,1.073,0,0,1-.872-1.7l10.737-15.031a1.074,1.074,0,0,1,1.748,1.248l-10.737,15.031A1.078,1.078,0,0,1,161.109,145.2Z" transform="translate(-160.035 -128.017)" fill="#fafafa"/>
  </g>
</svg>
