<svg xmlns="http://www.w3.org/2000/svg" width="36.868" height="34.359" viewBox="0 0 36.868 34.359">
  <g id="handshake" transform="translate(0 -13.875)">
    <path id="Path_25708" data-name="Path 25708" d="M72.769,270.766a1.543,1.543,0,0,0-1.992-.155l-.015-.01-1.323,1.323a1.523,1.523,0,0,0-.449,1.086,1.542,1.542,0,0,0,1.536,1.536,1.614,1.614,0,0,0,1.222-.586l1.022-1.022a1.535,1.535,0,0,0,0-2.172Z" transform="translate(-62.753 -233.261)" fill="#fda82b"/>
    <path id="Path_25709" data-name="Path 25709" d="M31.985,220.986a1.538,1.538,0,0,0-2.172,0l-1.158,1.159a1.536,1.536,0,0,0,2.171,2.172l1.159-1.159A1.537,1.537,0,0,0,31.985,220.986Z" transform="translate(-25.649 -187.98)" fill="#fda82b"/>
    <path id="Path_25710" data-name="Path 25710" d="M118.464,314.025a1.527,1.527,0,0,0-1.087.45l-1.159,1.159-.016.017a1.536,1.536,0,0,0,2.188,2.155l1.16-1.16a1.54,1.54,0,0,0-1.087-2.621Z" transform="translate(-105.307 -273.017)" fill="#fda82b"/>
    <path id="Path_25711" data-name="Path 25711" d="M23.464,24.022a6.149,6.149,0,0,1-7.614-.852l-2.687-2.686,3.353-3.353A9.443,9.443,0,1,0,3.175,30.447a4.254,4.254,0,0,1,6.311,4,4.268,4.268,0,0,1,3.68,3.918,4.273,4.273,0,0,1,4.09,3.137,4.264,4.264,0,0,1,4.271,1.3l.031-.036a1.537,1.537,0,0,0,1.971-2.314l0,0-6.1-6.1,1.917-1.917,6.035,6.035a1.536,1.536,0,0,0,2.171-2.172l-6.034-6.035,1.917-1.917,6.035,6.035A1.536,1.536,0,0,0,31.641,32.2Z" transform="translate(0 -0.062)" fill="#fda82b"/>
    <path id="Path_25712" data-name="Path 25712" d="M205.17,16.63a9.437,9.437,0,0,0-13.328,0l-3.79,3.791.768.768a3.428,3.428,0,0,0,4.844,0l.959-.959c.51.516,9.87,9.86,10.133,10.142A9.478,9.478,0,0,0,205.17,16.63Z" transform="translate(-171.053)" fill="#fda82b"/>
    <path id="Path_25713" data-name="Path 25713" d="M176.854,347.665a1.538,1.538,0,0,0-2.172,0l-1.159,1.159A1.536,1.536,0,0,0,175.695,351l1.159-1.159A1.545,1.545,0,0,0,176.854,347.665Z" transform="translate(-157.43 -303.208)" fill="#fda82b"/>
  </g>
</svg>
