<svg xmlns="http://www.w3.org/2000/svg" width="34.336" height="34.359" viewBox="0 0 34.336 34.359">
  <g id="price-tag" transform="translate(-0.008)">
    <path id="Path_25707" data-name="Path 25707" d="M34.344,6.591a19.056,19.056,0,0,1-2.371,9.171A1.02,1.02,0,0,1,30.23,14.7a17.279,17.279,0,0,0,2.075-8.111c0-2.637-1.715-4.551-4.078-4.551a4.083,4.083,0,0,0-4.078,4.08,32.252,32.252,0,0,0,.642,4.251,1.02,1.02,0,0,1-2,.417,33.522,33.522,0,0,1-.687-4.668A6.126,6.126,0,0,1,28.227,0C31.713,0,34.344,2.833,34.344,6.591ZM28.4,8.195c.405,3.388.993,9.991.318,10.663L13.9,33.676a2.333,2.333,0,0,1-3.3,0L.692,23.769a2.335,2.335,0,0,1,0-3.3L15.51,5.651c.235-.235,2.8-.246,5.68-.1-.016.19-.057.37-.057.564a20.183,20.183,0,0,0,.335,2.892,2.8,2.8,0,1,0,3.921-.731,17.09,17.09,0,0,1-.269-2.161c0-.09.019-.174.027-.263.355.037.7.076,1.035.117C28.14,6.213,28.16,6.209,28.4,8.195ZM20.5,19.284a6.387,6.387,0,0,0-1.444-2.289l1.125-1.126-1.252-1.251-1.214,1.215c-1.624-1.113-3.3-1.022-4.436.114-1.239,1.239-.946,2.811-.037,4.639.625,1.265.739,1.994.254,2.479s-1.3.282-2.032-.447a6.377,6.377,0,0,1-1.558-2.685l-1.88,1.114a7.324,7.324,0,0,0,1.635,2.708L8.438,24.982l1.251,1.252,1.317-1.316c1.737,1.226,3.489,1.061,4.626-.076C16.8,23.677,16.9,22.374,15.9,20.3c-.691-1.483-.857-2.212-.448-2.62.359-.359,1-.461,1.828.37a5.619,5.619,0,0,1,1.393,2.289Z" transform="translate(0)" fill="#fda82b"/>
  </g>
</svg>
