<svg id="bank" xmlns="http://www.w3.org/2000/svg" width="50.095" height="50.094" viewBox="0 0 50.095 50.094">
  <g id="Group_18823" data-name="Group 18823" transform="translate(0 0)">
    <g id="Group_18822" data-name="Group 18822">
      <path id="Path_25647" data-name="Path 25647" d="M48.582,44.3a11.48,11.48,0,0,0-2.661-14.528v-6.8h1.044a1.044,1.044,0,0,0,1.044-1.044V18.792h1.044a1.044,1.044,0,0,0,.595-1.9l-24-16.7a1.044,1.044,0,0,0-1.19,0l-24,16.7a1.044,1.044,0,0,0,.595,1.9H2.087v3.131a1.044,1.044,0,0,0,1.044,1.044H4.175v16.7H3.131a1.044,1.044,0,0,0-1.044,1.044v3.319A3.131,3.131,0,0,0,0,46.971v2.087A1.044,1.044,0,0,0,1.044,50.1H49.052A1.044,1.044,0,0,0,50.1,49.058V46.971A3.131,3.131,0,0,0,48.582,44.3ZM45.921,20.88H37.572V18.792h8.349Zm-2.087,2.087V28.4a11.375,11.375,0,0,0-4.175-1.211V22.967h4.175ZM25.048,2.323,45.722,16.705H4.373ZM13.568,39.666H12.524v-16.7h1.044a1.044,1.044,0,0,0,1.044-1.044V18.792h4.175v3.131a1.044,1.044,0,0,0,1.044,1.044h1.044v16.7H19.829a1.044,1.044,0,0,0-1.044,1.044V43.84H14.611V40.709A1.044,1.044,0,0,0,13.568,39.666Zm7.306,2.087h6.711a11.386,11.386,0,0,0,.825,2.087H20.873V41.753Zm2.087-2.087v-16.7h4.175v16.7ZM28.179,20.88H20.873V18.792h8.349V20.88Zm1.044,2.087h1.044a1.044,1.044,0,0,0,1.044-1.044V18.792h4.175v3.131a1.044,1.044,0,0,0,1.044,1.044h1.043v4.227a11.48,11.48,0,0,0-8.349,4.843ZM4.175,18.792h8.349V20.88H4.175Zm6.262,4.175v16.7H6.262v-16.7ZM4.175,41.753h8.349V43.84H4.175ZM2.087,48.015V46.971a1.044,1.044,0,0,1,1.044-1.044H29.765a11.575,11.575,0,0,0,2.265,2.087H2.087Zm45.921,0H45.19a11.567,11.567,0,0,0,2.192-1.993,1.044,1.044,0,0,1,.626.95Zm-9.393,0a9.393,9.393,0,1,1,9.393-9.393A9.393,9.393,0,0,1,38.615,48.015Z" transform="translate(0 -0.008)" fill="#fff"/>
      <path id="Path_25648" data-name="Path 25648" d="M171.918,53.034l-11.48-8.349-1.284,1.691,8.881,6.46h-18.7v2.087H171.25a1.046,1.046,0,0,0,.668-1.889Z" transform="translate(-134.722 -40.314)" fill="#fff"/>
      <path id="Path_25649" data-name="Path 25649" d="M358.262,322.079h-1.044v-2.087h-2.087v2.087h-1.044A2.087,2.087,0,0,0,352,324.167v2.087a2.087,2.087,0,0,0,2.087,2.087h4.175v2.087h-4.175v-1.044H352v1.044a2.087,2.087,0,0,0,2.087,2.087h1.044V334.6h2.087v-2.087h1.044a2.087,2.087,0,0,0,2.087-2.087v-2.087a2.087,2.087,0,0,0-2.087-2.087h-4.175v-2.087h4.175v1.044h2.087v-1.044A2.087,2.087,0,0,0,358.262,322.079Z" transform="translate(-317.559 -288.684)" fill="#fff"/>
    </g>
  </g>
</svg>
