<svg id="crm" xmlns="http://www.w3.org/2000/svg" width="50.095" height="50.095" viewBox="0 0 50.095 50.095">
  <path id="Path_25675" data-name="Path 25675" d="M46.753,41.213a4.837,4.837,0,0,0-2.122-8.629V31.7a4.045,4.045,0,0,0-4.04-4.04H26.856V24.719a2.5,2.5,0,0,0,4.031-1.913,2.515,2.515,0,0,0,2.424-2.424,2.515,2.515,0,0,0,2.424-2.424,2.517,2.517,0,0,0,1.694-4.3l-.168-.168A7.659,7.659,0,0,0,26.048,3.1,7.656,7.656,0,0,0,15.241,13.946a2.505,2.505,0,0,0,1.928,4.012,2.515,2.515,0,0,0,2.424,2.424,2.515,2.515,0,0,0,2.424,2.424,2.482,2.482,0,0,0,3.223,2.32v2.537H11.5a4.045,4.045,0,0,0-4.04,4.04v.881a4.837,4.837,0,0,0-2.122,8.629A7.28,7.28,0,0,0,1,47.863V51.1H15.544V47.863A7.28,7.28,0,0,0,11.2,41.213,4.837,4.837,0,0,0,9.08,32.584V31.7A2.427,2.427,0,0,1,11.5,29.28H25.24v3.3a4.837,4.837,0,0,0-2.122,8.629,7.28,7.28,0,0,0-4.342,6.651V51.1H33.32V47.863a7.28,7.28,0,0,0-4.342-6.651,4.837,4.837,0,0,0-2.122-8.629v-3.3H40.591A2.427,2.427,0,0,1,43.015,31.7v.881a4.837,4.837,0,0,0-2.122,8.629,7.28,7.28,0,0,0-4.342,6.651V51.1H51.1V47.863A7.28,7.28,0,0,0,46.753,41.213ZM31.312,2.616a6.041,6.041,0,0,1,4.8,9.724L32.392,8.625a6.526,6.526,0,0,0,.692-.59L31.941,6.893A4.681,4.681,0,0,1,28.61,8.272H27.329L25.95,9.651a.8.8,0,0,1-.572.237H22.342a.335.335,0,0,1-.237-.571l4.93-4.93a6.01,6.01,0,0,1,4.277-1.771Zm-10.528,0A6,6,0,0,1,24.9,4.239L20.962,8.174a1.951,1.951,0,0,0,1.38,3.33h3.036a2.409,2.409,0,0,0,1.715-.71L28,9.888h.612a6.317,6.317,0,0,0,2.318-.441l5.359,5.359a.906.906,0,0,1-1.281,1.281l-1.922-1.922L31.94,15.307l1.922,1.922a.906.906,0,0,1-1.281,1.281l-1.922-1.922-1.142,1.142,1.922,1.922a.906.906,0,0,1-1.281,1.281l-1.922-1.922-1.142,1.142,1.922,1.922a.906.906,0,0,1-1.281,1.281l-.27-.27a2.514,2.514,0,0,0-2.232-3.5,2.515,2.515,0,0,0-2.424-2.424,2.515,2.515,0,0,0-2.424-2.424,2.52,2.52,0,0,0-2.513-2.433,2.493,2.493,0,0,0-1.485.494,6.041,6.041,0,0,1,4.4-10.19Zm-4.432,12.83a.9.9,0,0,1,.265-.641l.612-.612a.906.906,0,0,1,1.281,1.281l-.612.612a.906.906,0,0,1-1.546-.641Zm2.424,2.424a.9.9,0,0,1,.265-.641l.612-.612A.906.906,0,0,1,20.935,17.9l-.612.612a.906.906,0,0,1-1.546-.641ZM21.2,20.294a.9.9,0,0,1,.265-.641l.612-.612a.906.906,0,0,1,1.281,1.281l-.612.612a.906.906,0,0,1-1.546-.641Zm3.33,3.33a.906.906,0,0,1-.641-1.546l.612-.612a.906.906,0,0,1,1.281,1.281l-.612.612A.9.9,0,0,1,24.529,23.624Zm-10.6,24.24v1.616H12.312V46.247H10.7v3.232H5.848V46.247H4.232v3.232H2.616V47.863a5.656,5.656,0,1,1,11.312,0ZM11.5,37.36a3.232,3.232,0,1,1-3.232-3.232A3.235,3.235,0,0,1,11.5,37.36Zm20.2,10.5v1.616H30.088V46.247H28.472v3.232H23.624V46.247H22.008v3.232H20.392V47.863a5.656,5.656,0,1,1,11.312,0ZM29.28,37.36a3.232,3.232,0,1,1-3.232-3.232A3.235,3.235,0,0,1,29.28,37.36Zm11.312,0a3.232,3.232,0,1,1,3.232,3.232A3.235,3.235,0,0,1,40.591,37.36Zm8.888,12.12H47.863V46.247H46.247v3.232H41.4V46.247H39.783v3.232H38.168V47.863a5.656,5.656,0,1,1,11.312,0Z" transform="translate(-1 -1)" fill="#fff"/>
  <path id="Path_25676" data-name="Path 25676" d="M38,38h1.616v1.616H38Z" transform="translate(-8.104 -8.104)" fill="#fff"/>
  <path id="Path_25677" data-name="Path 25677" d="M42,38h1.616v1.616H42Z" transform="translate(-8.872 -8.104)" fill="#fff"/>
  <path id="Path_25678" data-name="Path 25678" d="M46,38h1.616v1.616H46Z" transform="translate(-9.64 -8.104)" fill="#fff"/>
  <path id="Path_25679" data-name="Path 25679" d="M16,38h1.616v1.616H16Z" transform="translate(-3.88 -8.104)" fill="#fff"/>
  <path id="Path_25680" data-name="Path 25680" d="M20,38h1.616v1.616H20Z" transform="translate(-4.648 -8.104)" fill="#fff"/>
  <path id="Path_25681" data-name="Path 25681" d="M24,38h1.616v1.616H24Z" transform="translate(-5.416 -8.104)" fill="#fff"/>
</svg>
