<svg id="Outline" xmlns="http://www.w3.org/2000/svg" width="48.534" height="46.964" viewBox="0 0 48.534 46.964">
  <path id="Path_25686" data-name="Path 25686" d="M365.979,93.928l-4.611-12.092a2.847,2.847,0,0,0-1.523-1.6,2.9,2.9,0,0,0-2.247-.046,2.849,2.849,0,0,0-1.6,1.557,2.8,2.8,0,0,0,0,2.2L358.152,89a2.741,2.741,0,0,0-3.021,2.725V97.8a3.976,3.976,0,0,1-.418,1.769,18.38,18.38,0,0,0-1.931,8.178v1.984a.783.783,0,0,0-.783.783v10.176h1.565V111.3h9.393v9.393h1.565V110.515a.783.783,0,0,0-.783-.783h-.3l2.426-5.844A13.545,13.545,0,0,0,365.979,93.928Zm-1.558,9.366-2.674,6.439h-7.4v-1.984a16.806,16.806,0,0,1,1.765-7.478A5.55,5.55,0,0,0,356.7,97.8V91.729a1.173,1.173,0,1,1,2.346-.046c0,.032,0,9.439,0,9.439h1.565V91.729c0-.055,0-.109-.005-.163a4.837,4.837,0,0,0-.382-1.691l-2.779-6.543a1.248,1.248,0,0,1,0-.978,1.3,1.3,0,0,1,.729-.706,1.343,1.343,0,0,1,1.041.021,1.293,1.293,0,0,1,.693.724l4.611,12.092A11.982,11.982,0,0,1,364.421,103.293Z" transform="translate(-318.34 -73.726)" fill="#fff"/>
  <path id="Path_25687" data-name="Path 25687" d="M22.071,109.732v-1.984a18.38,18.38,0,0,0-1.931-8.178,3.977,3.977,0,0,1-.418-1.769V91.729A2.741,2.741,0,0,0,16.7,89l2.149-5.061a2.8,2.8,0,0,0,0-2.195,2.849,2.849,0,0,0-1.6-1.557,2.9,2.9,0,0,0-2.247.046,2.847,2.847,0,0,0-1.524,1.6L8.874,93.928a13.549,13.549,0,0,0,.112,9.966l2.425,5.839h-.3a.783.783,0,0,0-.783.783v10.176H11.9V111.3h9.393v9.393h1.565V110.515A.783.783,0,0,0,22.071,109.732ZM10.434,103.3a11.986,11.986,0,0,1-.1-8.813l4.611-12.092a1.293,1.293,0,0,1,.693-.724,1.343,1.343,0,0,1,1.041-.021,1.3,1.3,0,0,1,.729.706,1.247,1.247,0,0,1,0,.977l-2.779,6.544a4.836,4.836,0,0,0-.382,1.691c0,.054-.005,9.555-.005,9.555h1.565s0-9.408,0-9.439a1.173,1.173,0,1,1,2.346.046V97.8a5.551,5.551,0,0,0,.583,2.469,16.806,16.806,0,0,1,1.765,7.478v1.984h-7.4Z" transform="translate(-7.98 -73.726)" fill="#fff"/>
  <path id="Path_25688" data-name="Path 25688" d="M192,160h1.565v1.565H192Z" transform="translate(-173.995 -145.911)" fill="#fff"/>
  <path id="Path_25689" data-name="Path 25689" d="M224,160h1.565v1.565H224Z" transform="translate(-202.864 -145.911)" fill="#fff"/>
  <path id="Path_25690" data-name="Path 25690" d="M192,192h1.565v1.565H192Z" transform="translate(-173.995 -174.78)" fill="#fff"/>
  <path id="Path_25691" data-name="Path 25691" d="M296,256h1.565v1.565H296Z" transform="translate(-267.819 -232.518)" fill="#fff"/>
  <path id="Path_25692" data-name="Path 25692" d="M264,256h1.565v1.565H264Z" transform="translate(-238.95 -232.518)" fill="#fff"/>
  <path id="Path_25693" data-name="Path 25693" d="M192,224h1.565v1.565H192Z" transform="translate(-173.995 -203.649)" fill="#fff"/>
  <path id="Path_25694" data-name="Path 25694" d="M192,256h1.565v1.565H192Z" transform="translate(-173.995 -232.518)" fill="#fff"/>
  <path id="Path_25695" data-name="Path 25695" d="M153.565,101.916H170a.783.783,0,0,0,.783-.783V95.654a.783.783,0,0,0,.783-.783v-4.7a.783.783,0,0,0-.893-.775l-10.958,1.565a.783.783,0,0,0-.672.775v3.131a.783.783,0,0,0,.783.783v4.7h-5.479V86.261h7.827V88.61h1.565V86.261a.783.783,0,0,0,.783-.783v-4.7a.783.783,0,0,0-.894-.775l-10.958,1.565a.783.783,0,0,0-.672.775v3.131a.783.783,0,0,0,.783.783v14.872A.783.783,0,0,0,153.565,101.916Zm7.045-9.5L170,91.078v3.011H160.61Zm.783,3.235h7.827v4.7h-7.827Zm-7.827-12.628,9.393-1.342V84.7h-9.393Z" transform="translate(-137.909 -73.738)" fill="#fff"/>
  <path id="Path_25696" data-name="Path 25696" d="M170.4,363.294a17.221,17.221,0,0,1-8.509-2.246l-.775,1.36a18.81,18.81,0,0,0,18.568,0l-.775-1.36A17.221,17.221,0,0,1,170.4,363.294Z" transform="translate(-146.131 -327.288)" fill="#fff"/>
  <path id="Path_25697" data-name="Path 25697" d="M131.567,17.566a17.083,17.083,0,0,1,12.371,5.241l1.124-1.089a18.786,18.786,0,0,0-26.99,0l1.124,1.089a17.083,17.083,0,0,1,12.371-5.241Z" transform="translate(-107.3 -16.001)" fill="#fff"/>
  <path id="Path_25698" data-name="Path 25698" d="M173.432,332.69l.66-1.42a14.108,14.108,0,0,1-1.483-.8l-.825,1.331A15.67,15.67,0,0,0,173.432,332.69Z" transform="translate(-155.757 -299.702)" fill="#fff"/>
  <path id="Path_25699" data-name="Path 25699" d="M209.669,328.031a14.067,14.067,0,0,1-4.523-.741l-.5,1.483a15.685,15.685,0,0,0,14.089-2.065l-.907-1.276A13.994,13.994,0,0,1,209.669,328.031Z" transform="translate(-185.402 -295.156)" fill="#fff"/>
  <path id="Path_25700" data-name="Path 25700" d="M230.737,48.194l.245,1.546a14.252,14.252,0,0,1,2.226-.174,14.036,14.036,0,0,1,9.64,3.814l1.071-1.141A15.6,15.6,0,0,0,233.208,48a15.829,15.829,0,0,0-2.472.194Z" transform="translate(-208.941 -44.869)" fill="#fff"/>
  <path id="Path_25701" data-name="Path 25701" d="M384,416h1.565v1.565H384Z" transform="translate(-347.209 -376.863)" fill="#fff"/>
  <path id="Path_25702" data-name="Path 25702" d="M112,416h1.565v1.565H112Z" transform="translate(-101.822 -376.863)" fill="#fff"/>
</svg>
